<svg width="76" height="76" viewBox="0 0 76 76" fill="none" xmlns="http://www.w3.org/2000/svg">
<g clip-path="url(#clip0_1_44)">
<path d="M68.2905 7.30008H7.30009V68.2905H68.2905V7.30008Z" fill="#D20B12"/>
<path fill-rule="evenodd" clip-rule="evenodd" d="M44.8962 9.07953H66.511V30.6943L30.6943 66.511H9.07954V44.8962L44.8962 9.07953Z" fill="white"/>
<path fill-rule="evenodd" clip-rule="evenodd" d="M36.2559 37.7657C36.8758 37.2418 37.5939 36.577 38.365 35.8548C40.8769 33.5025 43.9474 30.5472 46.0001 29.9182C46.0015 31.3111 41.8215 35.654 40.5273 36.9904C36.6929 40.7073 32.7634 44.3769 29.3044 47.8596C27.3273 49.8503 28.0938 49.2425 28.2534 50.9672C28.377 52.3089 27.0826 53.5856 26.1724 54.3957C26.1498 54.4161 24.1602 56.1137 23.913 56.0975C23.7348 56.0854 21.9321 54.2352 21.7348 54.0384L21.7363 54.0369L21.0854 53.3857L21.084 53.3875L19.5388 51.8187C18.8936 51.1568 18.8936 51.2872 19.3611 50.6568C20.1676 49.5702 20.962 48.5885 21.9152 47.7654C22.6454 47.1349 24.1785 46.6149 25.1025 47.1074C26.3408 47.7672 26.4234 47.293 27.5861 46.1755L36.2559 37.7657ZM21.9059 51.0251L24.0769 53.1961C24.1144 53.2336 24.1635 53.2521 24.213 53.2521C24.2621 53.2521 24.3116 53.2336 24.3487 53.1961L25.0717 52.4735C25.3926 52.1522 25.5532 51.729 25.5532 51.3051C25.5532 50.8815 25.3926 50.4581 25.0717 50.1368L24.9652 50.0307C24.6443 49.7098 24.2207 49.5492 23.7973 49.5492C23.3736 49.5492 22.95 49.7098 22.6289 50.0307L21.9059 50.7537C21.8684 50.7912 21.8499 50.8403 21.8499 50.8886C21.8503 50.9385 21.8688 50.988 21.9059 51.0251ZM23.8054 53.4679L21.6343 51.2968C21.5222 51.1847 21.4658 51.0367 21.4658 50.8894C21.4666 50.7413 21.5224 50.5935 21.6343 50.482L22.357 49.7589C22.7532 49.3628 23.275 49.1649 23.7971 49.1649C24.3187 49.1649 24.8406 49.363 25.2367 49.7589L25.3428 49.8655C25.739 50.2616 25.9369 50.7835 25.9369 51.3051C25.9369 51.8268 25.7388 52.349 25.3428 52.7452L24.6202 53.4679C24.5081 53.58 24.3601 53.636 24.2128 53.636C24.0655 53.636 23.9173 53.58 23.8054 53.4679ZM41.0993 36.9684C41.778 36.3671 42.4437 35.8637 43.3334 35.4249C46.8446 33.4051 47.3249 36.216 48.5498 38.2239C50.6751 37.442 53.9745 33.685 55.0261 31.6656C56.8233 28.2141 56.9442 23.1768 55.2332 21.2196C53.6926 19.4577 48.43 19.1023 44.7783 20.8772C42.3696 22.048 39.1051 24.9866 37.9763 27.0971L38.2801 27.3412C41.1904 29.2401 43.04 30.115 39.1486 34.2601C38.5959 34.8485 38.0662 35.4151 37.5441 35.9823L27.3206 45.8994C26.3183 46.8627 26.2392 47.2797 25.2831 46.7697C24.203 46.1942 22.5101 46.7452 21.6643 47.4749C20.7594 48.2562 19.9125 49.265 19.1456 50.3024C18.5016 51.1741 18.4323 51.2348 19.1501 51.9689L23.0351 55.8566C23.811 56.6129 23.8572 56.6884 24.6943 56.0686C26.1758 54.971 28.8235 52.9837 28.634 50.9319C28.4794 49.2571 27.8094 49.9073 29.5747 48.1301C33.1244 44.5562 37.1681 40.787 41.0993 36.968V36.9684ZM44.0737 31.9642C44.3217 32.2122 39.5225 37.1496 39.2741 37.3981C39.026 37.6461 38.624 37.6461 38.3756 37.3981C38.1276 37.1498 38.1276 36.7476 38.3756 36.4996C38.6238 36.2514 43.8253 31.7158 44.0737 31.9642ZM39.1498 36.6398C39.2539 36.7439 39.2539 36.9126 39.1498 37.0167C39.0456 37.1209 38.8771 37.1209 38.7726 37.0167C38.6686 36.9126 38.6686 36.7439 38.7726 36.6398C38.8768 36.5356 39.0454 36.5356 39.1498 36.6398ZM40.3359 35.4798C40.4399 35.5841 40.4399 35.7526 40.3359 35.8571C40.2318 35.9611 40.0631 35.9611 39.959 35.8571C39.8548 35.7528 39.8548 35.5843 39.959 35.4798C40.0631 35.3758 40.2318 35.3758 40.3359 35.4798Z" fill="black"/>
<path d="M8.28407 7.30008H68.2905V68.2905H7.30009V7.30008H8.28386H8.28407ZM66.3233 9.26742H9.26764V66.3231H66.3233V9.26742Z" fill="black"/>
</g>
<defs>
<clipPath id="clip0_1_44">
<rect width="75.5906" height="75.5906" fill="white"/>
</clipPath>
</defs>
</svg>
