<svg width="76" height="76" viewBox="0 0 76 76" fill="none" xmlns="http://www.w3.org/2000/svg">
<g clip-path="url(#clip0_1_52)">
<path fill-rule="evenodd" clip-rule="evenodd" d="M19.1883 53.4388L29.5126 53.3796C29.7226 53.0615 30.3937 51.079 30.5874 50.561C30.9219 49.6697 31.3788 48.605 31.646 47.7076L42.574 47.5975L41.0871 43.347C40.8587 42.6841 39.7573 39.4677 39.5676 39.0823L34.8746 39.0782C34.9929 38.5663 37.2833 32.0988 37.7687 30.7037L37.9054 30.4141L46.6286 53.3531L56.39 53.3613C56.2493 52.7555 55.8128 51.7337 55.5824 51.1116L53.0716 44.4219C51.956 41.4645 50.7955 38.5336 49.6737 35.5701L43.7753 20.0735C43.5142 19.4024 43.1063 18.4765 42.9289 17.8157L33.0145 17.8116L19.1903 53.4388H19.1883Z" fill="#1E5BA8"/>
<path fill-rule="evenodd" clip-rule="evenodd" d="M36.8877 10.8383C44.4504 10.5405 52.1498 13.6876 57.2466 19.1087L58.0482 19.9837C58.3215 20.257 58.5764 20.5976 58.8192 20.8893C62.3639 25.1785 64.5279 30.9648 64.7523 36.8285C64.9787 42.7229 63.3123 47.9972 60.3162 52.6413C59.8226 53.4082 58.7988 54.789 58.1481 55.5069C57.0549 56.7143 55.9903 57.8014 54.6951 58.8131L53.7508 59.5453C49.6105 62.6719 44.2444 64.5483 38.7171 64.7543C32.9166 64.9705 27.526 63.3022 22.9492 60.3162C21.6663 59.478 20.9321 58.8865 19.8491 57.9279L19.2127 57.3425C18.8966 57.0611 18.6315 56.7898 18.3439 56.4839L17.5423 55.6089C16.1921 54.2669 14.2749 51.1606 13.4999 49.5371C9.35753 40.8628 10.0693 30.9219 15.2723 22.9493C17.8768 18.9578 21.7051 15.5966 26.0555 13.502C29.2597 11.96 32.8167 10.9994 36.8856 10.8383H36.8877ZM68.2909 36.9835V38.8334C68.2583 39.9001 68.1665 40.9587 68.0156 41.9927C67.7137 44.0364 67.2099 46.0331 66.5716 47.9687C66.2758 48.862 65.9169 49.7553 65.4987 50.6058C64.2893 53.0635 63.606 54.2261 61.9621 56.4206C61.6297 56.8653 61.3013 57.316 60.9117 57.7076C60.7996 57.8198 60.7996 57.8239 60.6996 57.9524C59.9083 58.9762 58.6193 60.0674 57.6586 60.9607C56.9346 61.6338 56.1228 62.1926 55.3111 62.7821C53.7733 63.9018 51.6766 65.0827 49.9389 65.7945C47.3812 66.8428 44.7584 67.6933 41.958 68.0299C40.7078 68.1808 39.5778 68.2665 38.4867 68.293H37.1508C35.5109 68.2542 33.8854 68.0707 31.9927 67.7484C26.9876 66.8938 22.0416 64.3994 18.1664 61.1443C18.0441 61.0403 18.0094 61.0321 17.8891 60.9118C17.7769 60.7996 17.7728 60.7996 17.6443 60.6997C17.0386 60.2326 15.3151 58.5071 14.8481 57.9034L14.432 57.4058C14.0587 56.9672 13.0655 55.7109 12.8146 55.3132L10.7118 51.8255C10.4018 51.2055 10.0673 50.5814 9.8042 49.9389C9.15358 48.3521 8.5825 46.7674 8.1705 45.0664C7.47297 42.1804 7.30573 40.0857 7.30573 37.0876C7.30573 33.1471 8.31531 29.223 9.81848 25.6231C10.0959 24.9582 10.4059 24.3851 10.7281 23.7386L11.7499 21.9132C12.5597 20.5956 13.4632 19.3494 14.4565 18.1665C15.1112 17.3873 16.4736 15.8903 17.1813 15.3009C17.3037 15.1989 17.3384 15.1907 17.4587 15.0704L17.94 14.638C18.9048 13.7406 20.3223 12.7759 21.4134 12.062C21.701 11.8744 22.2639 11.5277 22.5536 11.3706C25.2682 9.90212 27.4546 8.91293 30.5344 8.16849C33.4204 7.47096 35.515 7.30371 38.5132 7.30371C43.6284 7.30371 49.8634 9.16788 54.2485 12.1008C55.3498 12.8371 56.4206 13.5999 57.4363 14.4544C58.2154 15.1091 59.7125 16.4736 60.3019 17.1793C60.4039 17.3017 60.4121 17.3364 60.5324 17.4567L60.9648 17.938C61.9723 19.021 63.1084 20.6609 63.8916 21.9743C64.4749 22.9554 64.995 23.9609 65.5028 24.9888L66.0678 26.3043C66.6164 27.677 67.0774 29.0598 67.4323 30.5303C67.9299 32.5923 68.2297 34.789 68.297 36.9856L68.2909 36.9835Z" fill="#E83F36"/>
</g>
<defs>
<clipPath id="clip0_1_52">
<rect width="75.5906" height="75.5906" fill="white"/>
</clipPath>
</defs>
</svg>
