<svg width="76" height="76" viewBox="0 0 76 76" fill="none" xmlns="http://www.w3.org/2000/svg">
<g clip-path="url(#clip0_1_33)">
<path d="M14.1856 7.30084H61.4049C63.2987 7.30084 65.0213 8.07467 66.2696 9.32292C67.5159 10.575 68.2916 12.2958 68.2916 14.1876V61.4069C68.2916 63.2987 67.5159 65.0194 66.2696 66.2676L66.2657 66.2715C65.0194 67.5178 63.2967 68.2936 61.4049 68.2936H14.1856C12.2938 68.2936 10.5731 67.5178 9.32487 66.2715C8.07274 65.0252 7.2989 63.3026 7.2989 61.4069V14.1876C7.2989 12.2938 8.07274 10.5712 9.32098 9.32292C10.5673 8.07662 12.2899 7.30084 14.1856 7.30084ZM61.4049 9.26848H14.1856C12.8343 9.26848 11.6055 9.8226 10.7131 10.715C9.82066 11.6075 9.26654 12.8363 9.26654 14.1876V61.4069C9.26654 62.7582 9.82066 63.987 10.7131 64.8794C11.6036 65.7718 12.8343 66.3259 14.1856 66.3259H61.4049C62.7582 66.3259 63.9889 65.7718 64.8794 64.8813C65.7699 63.9889 66.324 62.7582 66.324 61.4069V14.1876C66.324 12.8343 65.7699 11.6036 64.8794 10.7131C63.985 9.8226 62.7562 9.26848 61.4049 9.26848Z" fill="#233D87"/>
<path fill-rule="evenodd" clip-rule="evenodd" d="M13.0832 37.2159C13.231 37.4958 13.021 37.2625 13.2387 37.3073C13.3321 37.3267 13.3729 37.3092 13.4448 37.2878L18.9083 34.976C22.6569 33.3973 26.8158 31.5132 30.5411 30.055C32.4698 29.2987 34.49 28.4179 36.4693 27.7199C39.8018 26.5436 40.8789 30.2844 41.5322 32.5009C42.5977 36.1057 43.9004 39.8854 45.0125 43.5446C45.3528 44.6625 45.5103 46.0255 45.1331 47.1901C44.5012 49.1403 43.6787 48.9497 43.5582 49.7586C46.1947 50.5674 50.6082 50.2855 53.5811 50.2855C55.3368 50.2855 57.11 50.3341 58.8618 50.2641C60.6078 50.1941 61.4438 49.4902 61.9707 48.1273C63.1354 45.1058 61.5857 42.1602 60.4133 39.9515C59.7873 38.7752 59.1962 37.6358 58.6265 36.4556C58.2863 35.7518 57.0886 33.4614 56.9078 32.884C55.9103 32.6993 54.0283 32.7867 52.9297 32.7945C51.5609 32.8023 50.1921 32.8315 48.8234 32.8529C44.0501 32.9287 43.9937 33.2689 43.0488 30.3875C42.8291 29.7206 42.1369 27.8754 42.2555 27.1735C42.4616 25.9448 44.2445 26.2422 45.4344 26.2558C46.8032 26.2733 48.172 26.2733 49.5408 26.2811C50.8824 26.2869 52.29 26.3667 53.6102 26.3492C53.5208 25.482 52.9472 24.7626 52.5739 24.0646C52.1714 23.3161 51.8117 22.5947 51.2732 22.1048C49.9977 20.944 47.7909 21.0082 45.6969 21.0373C43.7409 21.1268 41.7383 21.0821 39.7649 21.0801C38.5458 21.0782 38.0986 21.1093 37.2606 21.6537L27.9221 27.6324C26.6972 28.4335 25.554 29.2326 24.2688 30.0375C21.2687 31.9138 17.7748 34.0739 14.9245 36.0085C14.522 36.2826 13.369 37.14 13.0852 37.2178L13.0832 37.2159Z" fill="#233D87"/>
<path fill-rule="evenodd" clip-rule="evenodd" d="M13.8901 37.7233C13.7637 37.7778 13.6587 37.7836 13.4993 37.8244C13.3224 37.8711 13.4526 37.838 13.2912 37.8867C13.0365 37.9625 13.2446 37.9314 13.0482 37.9469C13.0346 38.1666 13.1396 38.118 13.3807 38.1452C13.5343 38.1627 13.7112 38.1705 13.8706 38.1861C14.1759 38.2172 14.5356 38.2347 14.8661 38.2522C19.5188 38.4758 24.2124 38.3824 29.0401 38.6721C31.6805 38.8296 34.4355 38.8782 37.0895 38.9521C37.7817 38.9716 38.4136 39.026 39.1096 39.0377C39.7746 39.0493 40.4298 39.026 40.6106 38.4349C40.8264 37.735 39.7571 34.4219 39.4265 33.4225C39.2049 32.7556 38.9657 32.5748 38.1375 32.6468C37.1323 32.7323 35.6721 33.1309 34.6747 33.3545C32.3979 33.8619 30.0725 34.3247 27.8171 34.8244C25.5365 35.3299 23.2577 35.8646 20.9673 36.3098C19.2428 36.6462 15.2647 37.5833 13.8881 37.7214L13.8901 37.7233Z" fill="#233D87"/>
<path fill-rule="evenodd" clip-rule="evenodd" d="M36.6093 47.3671C37.3111 47.2524 39.514 48.8992 40.9567 48.3509C41.7228 48.0592 41.9736 47.4546 41.9444 46.5096C41.9114 45.38 42.1233 44.8006 41.12 44.4973C39.691 44.0656 38.0033 43.8537 36.512 43.5096C35.0013 43.1635 33.4459 42.8252 31.9507 42.5335C28.8982 41.9386 25.8009 41.1822 22.7561 40.5659C21.2026 40.2509 19.6763 39.9048 18.1617 39.5626C17.0088 39.3021 14.4403 38.8355 13.6276 38.6158L13.2621 38.5924C13.5712 39.0513 18.6984 40.7467 19.0717 40.8692C20.0866 41.2036 21.0568 41.5828 22.0367 41.9425C23.0439 42.3119 23.9538 42.6366 24.9493 43.0099L35.9074 47.0385C36.1621 47.1299 36.4245 47.1882 36.6093 47.3632V47.3671Z" fill="#233E85"/>
<path fill-rule="evenodd" clip-rule="evenodd" d="M16.058 40.6651C16.2835 40.6845 21.0023 43.0157 21.0879 43.1149C21.3057 43.179 24.4263 44.7481 24.7024 44.9659L24.7782 45.0358L25.0018 45.0903L27.8035 46.496C29.0498 47.0404 31.3771 48.2498 32.6468 48.8681C34.4958 49.7663 38.0986 51.4987 39.8562 52.4786C40.6417 52.9161 41.4117 53.3127 42.2672 53.7191C43.1615 54.1449 43.9198 54.419 45.067 54.489C46.1597 54.5551 47.719 54.3568 48.6503 54.491L48.7359 54.3782C48.7397 54.3549 48.7534 54.3452 48.765 54.3316C48.2342 53.9233 40.3151 50.6432 40.0234 50.4216C39.3838 50.2407 34.6844 48.1312 33.5373 47.6587L30.2961 46.2627C29.0576 45.7164 14.9011 39.654 14.1117 39.5063C14.2828 39.761 15.2842 40.2276 15.5972 40.3695C15.9997 40.5542 16.0191 40.6242 16.021 40.6242C16.0269 40.6126 16.0483 40.6495 16.0599 40.6631L16.058 40.6651Z" fill="#EF038B"/>
<path fill-rule="evenodd" clip-rule="evenodd" d="M54.7826 53.5441C55.8559 53.8708 56.4256 54.3627 58.1502 54.4988C59.2351 54.5843 61.5294 54.6057 62.5423 54.489C62.3421 54.141 61.088 53.7774 60.6603 53.6394C60.4075 53.5577 58.7821 53.0444 58.6635 52.9511C56.2564 52.4106 54.6913 51.3004 52.3425 51.1993C51.5512 51.1643 50.4974 51.1196 49.8091 51.349C49.9238 51.6173 50.5441 51.8195 50.9679 51.9945L54.7826 53.5441Z" fill="#EF038B"/>
</g>
<defs>
<clipPath id="clip0_1_33">
<rect width="75.5906" height="75.5906" fill="white"/>
</clipPath>
</defs>
</svg>
