<svg width="76" height="76" viewBox="0 0 76 76" fill="none" xmlns="http://www.w3.org/2000/svg">
<g clip-path="url(#clip0_1_58)">
<path fill-rule="evenodd" clip-rule="evenodd" d="M32.6798 51.1986C32.4647 49.3347 32.2906 47.4549 32.1261 45.5752C32.0248 44.4139 31.5976 40.743 31.664 39.876C32.8222 40.9614 35.5722 43.936 36.7779 45.2145C38.4203 46.9581 40.2272 48.9771 41.8411 50.6416C42.7208 51.5466 43.4961 52.4707 44.3632 53.3631C45.0024 54.0213 46.2809 55.5213 46.8758 56.094L49.3821 58.8345C49.6416 59.132 51.7428 61.3724 51.8156 61.6224C51.3504 61.9832 50.4264 62.4389 49.8346 62.7174C45.7271 64.6414 41.6829 65.5084 37.0469 65.4009C36.5184 65.3882 34.5532 65.2901 34.221 65.1287C33.9045 64.9705 33.9551 64.2775 33.9108 63.8629C33.4583 59.6446 33.1672 55.4422 32.6798 51.1954V51.1986ZM18.9491 57.7364C18.7275 57.844 18.3889 57.4073 18.1136 57.113C17.2307 56.1732 16.7719 55.6953 15.9238 54.5846C10.5789 47.6258 8.86377 38.5912 11.3099 30.0185C12.0789 27.3224 12.8764 25.8097 14.196 23.5091C14.4871 23.0028 14.8162 22.5345 15.12 22.0693C15.2402 21.8857 15.2782 21.7307 15.4902 21.7212C15.6073 21.9459 18.9712 57.6763 18.9522 57.7364H18.9491ZM45.6195 36.0785C45.6606 35.9298 57.5149 18.6041 57.6098 18.525C57.9769 18.8288 58.6573 19.5851 58.9769 19.968C60.5686 21.8699 61.1477 22.737 62.3946 24.9996C65.2553 30.1894 66.2996 37.8981 64.8755 43.762C64.0686 47.0815 63.3312 48.9074 61.673 51.7777C61.3281 51.6258 57.8408 48.0815 57.5972 47.8442L54.5814 44.8822C54.2997 44.6006 53.9105 44.205 53.6036 43.917C51.6447 42.0816 49.5688 39.9044 47.5942 38.0152L45.6195 36.0785ZM28.8793 11.6327C29.1039 11.5283 29.5913 11.3796 29.8381 11.3005C33.8887 10.0568 38.4646 9.79099 42.6417 10.5536C43.4012 10.6929 46.186 11.2846 46.7429 11.6327C46.6923 11.8606 44.205 15.9238 43.8854 16.4776L41.0278 21.2782C40.1734 22.6959 38.9962 24.5977 38.1639 26.0692C37.8665 26.5945 37.5184 27.1451 37.1988 27.6799L31.9552 36.4456C31.7147 36.8792 31.6419 37.1482 31.3729 37.107L28.8793 11.6327ZM7.24987 38.0184C7.24987 39.1196 7.4524 41.9867 7.73404 43.1481C7.79417 43.3981 7.83847 43.6164 7.89227 43.9329C8.00302 44.5689 8.44289 46.3885 8.6644 46.936C8.93339 47.6037 9.1106 48.322 9.41439 49.0182C9.70553 49.6922 9.91122 50.322 10.2562 50.9549L10.5694 51.5846C11.139 52.7144 11.7625 53.8251 12.4935 54.8536C12.5662 54.958 12.5979 55.0339 12.6738 55.1479C12.8004 55.3346 13.2118 55.7649 13.5124 56.1985L14.3289 57.2681C14.7877 57.8946 15.7434 58.8978 16.3573 59.4896L17.544 60.613C17.8415 60.9136 20.544 63.0306 21.161 63.3439L23.1009 64.499C23.2971 64.6192 23.4901 64.7363 23.7021 64.8407L25.2496 65.6002C25.3762 65.6603 25.4458 65.6793 25.585 65.7363L26.9173 66.2932C27.0217 66.3376 27.1198 66.3882 27.2464 66.4357C27.3825 66.4863 27.4869 66.5084 27.604 66.5496C27.8413 66.6287 28.0533 66.7173 28.297 66.7996L29.7653 67.2204C30.0375 67.2901 30.2242 67.3597 30.5027 67.4293C30.6799 67.4736 30.7147 67.4736 30.8951 67.5084C31.0501 67.5369 31.1197 67.5685 31.2716 67.6034C31.5533 67.6666 31.7495 67.7236 32.0469 67.7742C36.0216 68.4388 39.3032 68.4736 43.3189 67.8027C43.5499 67.7647 43.8759 67.7236 44.1164 67.654C44.3632 67.5844 44.5847 67.5369 44.8758 67.4704C46.4834 67.1065 48.0119 66.6034 49.515 65.9736L52.4232 64.5812C52.6321 64.4642 52.8251 64.3597 53.0276 64.2395C53.2365 64.1129 53.42 64.0211 53.6257 63.8914L55.3694 62.749C55.5054 62.6541 55.5118 62.6256 55.632 62.5401C56.4548 61.9705 57.2744 61.3566 58.0085 60.6699L59.037 59.7047L59.2332 59.5339C59.5054 59.306 59.6921 59.0307 59.9452 58.7775C60.1256 58.5972 60.2395 58.4959 60.4009 58.287C60.5496 58.094 60.6826 57.9864 60.8439 57.7839C60.9262 57.6826 60.9863 57.6383 61.075 57.5434C61.1699 57.4358 61.1857 57.3947 61.287 57.2807C61.5971 56.9326 61.8281 56.5909 62.1256 56.2301L63.1382 54.8314C63.211 54.7301 63.2553 54.6352 63.3186 54.5403C64.4072 52.8852 65.3027 51.1416 66.0685 49.3157L66.6255 47.879C66.8628 47.1828 67.1445 46.4296 67.2837 45.705L67.5843 44.5373C67.6856 44.0151 67.809 43.5246 67.9008 42.9645L68.2236 40.4551C68.271 40.1513 68.2267 39.8538 68.2647 39.5532C68.3059 39.2652 68.29 38.9994 68.3027 38.645C68.3217 38.05 68.3596 37.4266 68.3059 36.8095C68.2805 36.5026 68.328 36.1988 68.2805 35.8887C68.1888 35.2906 68.1919 34.6798 68.1096 34.1197C68.0653 33.8254 68.0337 33.5469 67.9989 33.2875C67.7774 31.7622 67.5495 30.8033 67.1508 29.3635L65.578 25.1135L63.2078 20.8225L59.768 16.5504L58.7807 15.5979L58.5339 15.37C58.4421 15.2814 58.3915 15.215 58.2965 15.1327C57.651 14.5631 56.901 13.8827 56.1826 13.4175L54.4896 12.2245C54.3757 12.1422 54.3061 12.1296 54.1922 12.0505L53.3093 11.5157C52.92 11.272 52.4896 11.0188 52.0751 10.81L50.7935 10.1517C50.4549 9.94922 49.1891 9.46189 48.7682 9.29417C48.2904 9.1043 47.8283 8.94924 47.3347 8.78468L45.8727 8.35747C45.591 8.29735 45.4075 8.22456 45.1258 8.15811C44.9486 8.11697 43.9392 7.87647 43.8031 7.86065C43.1512 7.84482 42.0278 7.53154 41.1797 7.48407C40.2114 7.43027 39.4392 7.32584 38.4487 7.32901C38.1165 7.32901 38.1038 7.26888 37.9013 7.30686C37.7177 7.34167 37.5722 7.28154 37.395 7.31319C36.9772 7.38597 36.414 7.32901 36.0311 7.37331C35.7589 7.40496 35.376 7.41129 35.1418 7.43027C34.0026 7.51572 32.9014 7.6771 31.7843 7.90178L29.4584 8.4619C29.1957 8.52836 28.99 8.6138 28.74 8.68658C28.4489 8.77202 28.2654 8.82899 27.99 8.93341L23.4743 10.8701C23.3889 10.9112 23.3699 10.9144 23.2939 10.9524L22.661 11.3163C21.5503 11.8859 20.5123 12.6865 19.4933 13.3922C19.3604 13.484 19.3541 13.5061 19.2307 13.6011C18.6041 14.0916 17.9681 14.5757 17.4048 15.1327C17.2814 15.2561 17.2434 15.2656 17.1168 15.37L15.908 16.5725C15.7276 16.7656 15.6326 16.8383 15.4459 17.0535L14.3162 18.3352C14.1675 18.5187 14.0377 18.6674 13.8953 18.8605C13.8004 18.987 13.7782 19.0029 13.6801 19.1168L11.5568 22.2402C11.3194 22.5693 10.7087 23.7686 10.5283 24.1484C10.3701 24.4775 10.2182 24.873 10.003 25.142L9.84793 25.4078C9.7973 25.5344 9.77515 25.6293 9.72135 25.7559C9.04731 27.3603 8.83529 28.085 8.34163 29.6768L7.95239 31.2305C7.92391 31.3571 7.90492 31.5122 7.89227 31.5818L7.72455 32.4489C7.40493 33.702 7.23721 36.7273 7.23721 38.0184H7.24987Z" fill="#ED6B09"/>
</g>
<defs>
<clipPath id="clip0_1_58">
<rect width="75.5906" height="75.5906" fill="white"/>
</clipPath>
</defs>
</svg>
