<svg width="76" height="76" viewBox="0 0 76 76" fill="none" xmlns="http://www.w3.org/2000/svg">
<path fill-rule="evenodd" clip-rule="evenodd" d="M11.5968 41.5204C11.5968 46.7902 11.6028 49.6456 13.7141 54.6994C17.7297 64.3108 26.307 68.2894 36.5666 68.2894C42.2375 68.2894 47.3072 67.0753 51.6519 64.4789C53.1301 63.5957 53.9673 62.8426 55.2715 61.7995C57.4098 60.0882 60.1762 56.0556 61.2834 53.6392C61.9255 52.237 61.9985 52.535 62.7486 50.3807C63.5917 47.9613 64.9629 44.7859 62.9536 42.5775C61.1323 40.5762 57.8288 41.0333 56.3176 43.0496C54.4163 45.585 55.9396 53.1871 44.9679 58.4699C39.055 61.3164 31.1318 61.0393 25.6429 57.3928C20.8672 54.2213 17.8957 47.7913 17.8957 42.1945C17.8957 33.7152 19.1759 28.7334 23.6966 21.8994C25.3719 19.366 29.4075 15.5504 32.2189 14.0001C47.4793 5.58686 59.9622 18.4778 59.9622 14.7493C59.9622 13.192 59.4461 12.4069 57.2568 11.1557C48.7635 6.30297 37.2937 5.8309 28.8724 10.8787C22.8355 14.4972 16.9446 21.7313 14.4842 28.4344C13.251 31.7959 11.5958 36.9377 11.5958 41.5184L11.5968 41.5204Z" fill="#5CBE12"/>
<path fill-rule="evenodd" clip-rule="evenodd" d="M30.9427 21.0492C30.9427 27.6392 39.6801 51.8679 29.1435 51.8679C24.9388 51.8679 24.4327 47.3693 22.8445 47.3693C20.4851 47.3693 22.5455 55.9176 29.8186 55.9176C33.3741 55.9176 36.1865 53.4742 37.6998 50.5257C40.5852 44.9029 39.7841 32.433 39.083 26.183C38.8429 24.0437 38.7109 18.1248 35.4424 18.1248H33.8682C32.573 18.1248 30.9437 19.754 30.9437 21.0492H30.9427Z" fill="#EB0A0A"/>
<path fill-rule="evenodd" clip-rule="evenodd" d="M43.3156 30.4967L43.3076 34.1042C43.3096 35.3404 43.4867 35.5524 43.5417 36.5696L43.7647 41.9714C43.7357 44.6148 44.0557 46.9592 43.7287 49.5896C43.6497 50.2247 43.0876 51.6429 44.2158 51.6429C46.1461 51.6429 47.4133 43.3536 47.5783 41.2833C47.6353 40.5622 47.5613 39.7651 47.5833 39.038C47.6153 37.9268 47.7893 37.9148 47.8233 36.8026C47.8673 35.3334 47.6793 33.8042 47.8773 32.358C48.0503 31.0928 47.9283 29.3215 48.1344 27.8913C48.4384 25.7789 48.0934 25.1448 49.7466 23.6556C49.9136 23.5056 50.2047 23.2716 50.3777 23.1625C56.0846 19.583 59.19 32.2689 51.4799 35.5134C49.3625 36.4046 48.8385 36.2315 49.3896 38.5969C52.416 39.302 55.0324 37.5487 56.6437 35.7275C59.7151 32.2569 60.3942 26.173 57.6758 21.9864C54.6774 17.3687 43.3156 15.8144 43.3156 30.4977V30.4967Z" fill="#EA0A0A"/>
</svg>
