<svg width="76" height="76" viewBox="0 0 76 76" fill="none" xmlns="http://www.w3.org/2000/svg">
<g clip-path="url(#clip0_4_9)">
<path d="M8.28398 7.30017H68.2904V16.5592H66.3232V9.26737H9.26751V16.5592H7.30031V7.30017H8.28412H8.28398ZM68.2904 59.0313V68.2904H7.30017V59.0313H9.26737V66.3232H66.323V59.0313H68.2902H68.2904Z" fill="#40FD88"/>
<path d="M5.26867 22.806H4.88507V25.5076H5.37677C5.96492 25.5076 6.41268 25.3877 6.72269 25.1512C7.03298 24.9146 7.18681 24.5726 7.18681 24.1292C7.18681 23.6629 7.03756 23.3277 6.73669 23.1186C6.43583 22.9096 5.94635 22.806 5.26867 22.806ZM2.62491 30.7861V21.0282H5.13341C5.93734 21.0282 6.55986 21.0811 7.00319 21.1866C7.44652 21.2924 7.83691 21.4671 8.17935 21.715C8.54216 21.9747 8.82446 22.2963 9.02443 22.6799C9.22441 23.0635 9.32308 23.4679 9.32308 23.8928C9.32308 24.5086 9.16704 25.046 8.85439 25.5079C8.54216 25.9694 8.09204 26.33 7.50403 26.5919L10.4808 30.7864H7.82083L5.21601 26.9547H4.88535V30.7864H2.62519L2.62491 30.7861ZM11.4067 30.7861V21.0282H17.4158V23.0404H13.6669V24.8047H16.8783V26.8029H13.6669V28.7327H17.471V30.7861H11.4067ZM19.2465 30.7861V20.7111H19.4691L25.545 26.4056V21.0282H27.6949V31.1584H27.4931L21.3964 25.4638V30.7861H19.2465ZM32.1305 21.0282V26.3894C32.1305 27.2507 32.2892 27.8964 32.606 28.3238C32.9209 28.7531 33.4008 28.9667 34.0441 28.9667C34.662 28.9667 35.1353 28.7671 35.4592 28.3673C35.7854 27.9701 35.9482 27.3887 35.9482 26.6261V21.0283H38.0296V26.6261C38.0296 28.0344 37.669 29.1346 36.9453 29.9226C36.2241 30.7103 35.2204 31.1033 33.9361 31.1033C32.6383 31.1033 31.6298 30.713 30.9088 29.9318C30.1899 29.151 29.8289 28.053 29.8289 26.6401V21.0283H32.1307L32.1305 21.0282ZM40.1681 30.7861V20.7111H40.3907L46.4666 26.4056V21.0282H48.6165V31.1584H48.4147L42.318 25.4638V30.7861H40.1681ZM58.0551 24.1153C57.6326 23.6813 57.2055 23.3597 56.7735 23.1485C56.3392 22.9395 55.8846 22.8336 55.4091 22.8336C54.5844 22.8336 53.9091 23.1186 53.3855 23.6881C52.8595 24.2577 52.5975 24.9905 52.5975 25.8818C52.5975 26.7752 52.8573 27.4991 53.3783 28.0527C53.8976 28.6061 54.5753 28.8842 55.4114 28.8842C55.9054 28.8842 56.3967 28.7807 56.8884 28.5739C57.3801 28.3671 57.8691 28.0573 58.3586 27.6437L58.2094 30.2346C57.7914 30.5173 57.3363 30.733 56.84 30.8801C56.3442 31.0293 55.8293 31.1031 55.2942 31.1031C54.7201 31.1031 54.171 31.0135 53.6426 30.8343C53.1165 30.6552 52.6297 30.3888 52.1864 30.0396C51.5571 29.5455 51.0771 28.9439 50.7415 28.2319C50.4085 27.5221 50.2407 26.7454 50.2407 25.9071C50.2407 25.1837 50.3647 24.5061 50.6107 23.8741C50.8586 23.2426 51.217 22.682 51.6879 22.1975C52.1634 21.7126 52.7126 21.343 53.3373 21.0833C53.9598 20.826 54.6167 20.6974 55.3084 20.6974C55.8572 20.6974 56.3788 20.7729 56.8773 20.9271C57.3755 21.0787 57.8513 21.3107 58.3037 21.6206L58.0554 24.1151L58.0551 24.1153ZM59.8999 30.7861V21.0282H62.2288V30.7861H59.8999ZM66.626 27.685H69.1892L67.9234 24.6301L66.6258 27.685H66.626ZM62.9735 30.7861L67.9511 20.7251H68.0981L72.9658 30.7861H70.5284L69.9108 29.3665H65.9506L65.3187 30.7861H62.9735ZM24.7779 39.58H27.3412L26.0754 36.525L24.7778 39.58H24.7779ZM21.1254 42.6811L26.1031 32.62H26.2501L31.1177 42.6811H28.6803L28.0628 41.2614H24.1026L23.4707 42.6811H21.1254ZM35.3906 39.9246C35.9899 40.292 36.4998 40.5471 36.9205 40.6964C37.3385 40.8434 37.7475 40.9167 38.147 40.9167C38.5492 40.9167 38.873 40.8272 39.1187 40.6502C39.3621 40.4734 39.4839 40.2463 39.4839 39.968C39.4839 39.5708 39.05 39.1207 38.1793 38.6244C38.039 38.5439 37.9314 38.4796 37.8554 38.4358L37.1963 38.0639C36.5554 37.701 36.0799 37.2899 35.7722 36.8325C35.4619 36.3756 35.3081 35.8564 35.3081 35.2776C35.3081 34.4919 35.6044 33.8485 36.197 33.3455C36.7873 32.8424 37.5523 32.5923 38.4896 32.5923C38.8362 32.5923 39.2108 32.6334 39.6128 32.714C40.0168 32.7945 40.4647 32.9207 40.9587 33.0908V35.3763C40.4878 35.0822 40.0421 34.8547 39.6196 34.694C39.197 34.5334 38.8384 34.4529 38.5421 34.4529C38.2137 34.4529 37.9566 34.524 37.7681 34.6643C37.5799 34.8045 37.4858 34.9973 37.4858 35.2384C37.4858 35.4084 37.541 35.5668 37.6532 35.7139C37.7659 35.8631 37.9337 35.9966 38.1585 36.1183L39.3025 36.7498C40.2603 37.2804 40.9036 37.7699 41.2342 38.2178C41.5653 38.6679 41.7305 39.1986 41.7305 39.8143C41.7305 40.7653 41.4066 41.5347 40.7587 42.1206C40.1087 42.7064 39.2496 42.9983 38.1769 42.9983C37.8141 42.9983 37.4187 42.9589 36.9916 42.8834C36.5669 42.8074 36.0958 42.688 35.5857 42.5274L35.3907 39.9248L35.3906 39.9246ZM45.6286 32.9231V38.2843C45.6286 39.1456 45.7873 39.7913 46.1041 40.2187C46.4189 40.648 46.8988 40.8616 47.5421 40.8616C48.1601 40.8616 48.6334 40.662 48.9572 40.2622C49.2835 39.865 49.4463 39.2837 49.4463 38.521V32.9232H51.5277V38.521C51.5277 39.9293 51.1671 41.0295 50.4434 41.8175C49.7222 42.6052 48.7184 42.9983 47.4342 42.9983C46.1364 42.9983 45.1279 42.6079 44.4068 41.8267C43.688 41.0459 43.327 39.9479 43.327 38.535V32.9232H45.6287L45.6286 32.9231ZM11.1322 46.6099H10.8151V49.2147H11.238C11.8262 49.2147 12.2739 49.1021 12.584 48.8745C12.8942 48.6474 13.0481 48.3211 13.0481 47.896C13.0481 47.4504 12.8965 47.1264 12.5912 46.9198C12.2854 46.713 11.7986 46.6099 11.1323 46.6099H11.1322ZM8.48617 54.576V44.818H10.9969C11.7687 44.818 12.3818 44.8732 12.8345 44.9858C13.287 45.0985 13.689 45.2867 14.0406 45.5508C14.4034 45.815 14.6857 46.1458 14.8857 46.543C15.0857 46.9406 15.1843 47.3609 15.1843 47.8042C15.1843 48.7918 14.8329 49.5731 14.1303 50.1517C13.4296 50.7307 12.4764 51.0202 11.2725 51.0202C11.1485 51.0202 11.0544 51.0202 10.9898 51.018C10.9279 51.0158 10.8682 51.0108 10.8152 51.0062V54.576H8.48631H8.48617ZM17.8167 51.4749H20.38L19.1142 48.4199L17.8166 51.4749H17.8167ZM14.1642 54.576L19.1419 44.5149H19.2889L24.1565 54.576H21.7191L21.1016 53.1563H17.1414L16.5095 54.576H14.1642ZM27.5309 46.5959H27.1473V49.2975H27.639C28.2272 49.2975 28.6749 49.1776 28.9849 48.941C29.2952 48.7045 29.4491 48.3624 29.4491 47.9191C29.4491 47.4528 29.2998 47.1175 28.9989 46.9084C28.6981 46.6994 28.2086 46.5959 27.5309 46.5959ZM24.8872 54.576V44.818H27.3957C28.1996 44.818 28.8221 44.871 29.2654 44.9764C29.7088 45.0823 30.0992 45.2569 30.4416 45.5048C30.8044 45.7645 31.0867 46.0862 31.2867 46.4698C31.4867 46.8534 31.5853 47.2578 31.5853 47.6827C31.5853 48.2984 31.4293 48.8358 31.1166 49.2977C30.8044 49.7592 30.3543 50.1198 29.7663 50.3817L32.7431 54.5763H30.0831L27.4783 50.7445H27.1476V54.5763H24.8874L24.8872 54.576ZM35.6535 54.576V46.8578H32.5524V44.818H41.0699V46.8578H37.9828V54.576H35.6535ZM42.2162 54.576V44.818H44.5451V54.576H42.2162ZM49.1214 52.481H49.6335C50.651 52.481 51.4481 52.2353 52.0226 51.7414C52.5967 51.2473 52.8839 50.5674 52.8839 49.697C52.8839 48.8266 52.5966 48.1443 52.0226 47.6458C51.4481 47.1473 50.651 46.899 49.6335 46.899H49.1214V52.481ZM46.8197 54.576V44.818H49.4105C51.2322 44.818 52.6609 45.2523 53.6924 46.1226C54.7238 46.9935 55.2405 48.1855 55.2405 49.697C55.2405 50.6022 55.0363 51.4084 54.6274 52.109C54.2206 52.8117 53.6213 53.3885 52.8309 53.8431C52.3808 54.1029 51.8935 54.2887 51.3653 54.4037C50.8395 54.5186 50.1872 54.5761 49.4105 54.5761H46.8197V54.576ZM58.6587 49.697C58.6587 50.5447 58.907 51.2568 59.4028 51.8287C59.8991 52.4005 60.5103 52.6878 61.2359 52.6878C61.9665 52.6878 62.5799 52.4031 63.0739 51.8333C63.5676 51.2615 63.8135 50.5494 63.8135 49.6971C63.8135 48.8403 63.5676 48.1237 63.0739 47.5514C62.5799 46.9796 61.9665 46.6924 61.2359 46.6924C60.5103 46.6924 59.8991 46.9796 59.4028 47.5514C58.907 48.1237 58.6587 48.8403 58.6587 49.6971V49.697ZM56.2606 49.697C56.2606 48.9736 56.3846 48.2981 56.6352 47.6685C56.8831 47.037 57.2509 46.4742 57.7354 45.9757C58.1927 45.5003 58.7256 45.1352 59.3319 44.8823C59.9363 44.6276 60.5724 44.5009 61.236 44.5009C61.9001 44.5009 62.5362 44.6298 63.145 44.8845C63.754 45.1397 64.2936 45.5093 64.7645 45.9896C65.24 46.4697 65.6006 47.0233 65.8439 47.6548C66.0899 48.2841 66.2117 48.9664 66.2117 49.6969C66.2117 50.308 66.1267 50.8822 65.9566 51.4196C65.7842 51.957 65.5319 52.4487 65.1938 52.8944C64.7184 53.5263 64.1348 54.0176 63.4413 54.3669C62.7478 54.7183 62.0127 54.8929 61.236 54.8929C60.5769 54.8929 59.9453 54.764 59.341 54.5093C58.7371 54.2542 58.2019 53.8846 57.7355 53.4043C57.2511 52.9084 56.8833 52.3456 56.6353 51.7182C56.3848 51.0935 56.2607 50.418 56.2607 49.697H56.2606Z" fill="#40FD88"/>
</g>
<defs>
<clipPath id="clip0_4_9">
<rect width="75.5906" height="75.5906" fill="white"/>
</clipPath>
</defs>
</svg>
