<svg width="76" height="76" viewBox="0 0 76 76" fill="none" xmlns="http://www.w3.org/2000/svg">
<g clip-path="url(#clip0_1_69)">
<path d="M8.78081 13.505V62.0518L30.1207 62.0433C30.1207 62.0433 30.1516 61.4417 30.0124 60.6954C29.8016 59.5582 29.342 57.8603 28.9175 55.6577C28.7095 54.581 28.3763 52.5949 28.2583 52.0326C27.5344 48.5861 26.7613 45.0679 26.2834 42.3157C26.0177 40.778 25.8083 39.5579 25.8828 38.8396C25.9081 38.5993 26.2539 38.1467 26.497 38.1467C27.0002 38.1467 27.3334 39.3049 27.7902 40.2677C28.5562 41.8814 29.3729 43.9673 30.4805 46.5606C31.2522 48.3654 32.0196 50.1829 32.6044 51.5997C32.9544 52.4459 33.2285 53.1515 33.4295 53.628C33.6192 54.0764 33.7387 54.2619 33.7387 54.2619L37.33 54.2155C37.33 54.2155 37.1979 54.0216 36.9814 53.7756C36.474 53.1979 35.5576 52.1465 35.1893 51.3003C34.9953 50.8561 34.762 50.2461 34.7732 49.6515C34.7817 49.22 34.9967 48.7238 35.268 48.454C35.8092 47.9128 36.6919 47.6443 36.9393 47.5783C38.1959 47.2409 38.8706 47.5445 39.1938 47.8046C40.1005 48.5355 40.3127 49.8005 40.2129 51.0108C40.1342 51.9595 39.846 52.8746 39.6675 53.4692C39.541 53.8908 39.5059 54.1523 39.5059 54.1523L42.4844 54.1073C42.4844 54.1073 43.0621 52.7776 44.4494 49.9088C44.8964 48.9853 45.3518 47.9508 45.8662 46.8797C46.5873 45.3785 47.3267 43.7916 48.0534 42.2806C48.2769 41.8181 48.4751 41.3613 48.6929 40.9171C48.9572 40.3774 49.31 39.5593 49.4027 39.3583C49.7092 38.6935 49.9411 38.5923 50.0676 38.5585C50.2321 38.5149 50.464 38.522 50.4963 38.522C50.6256 38.522 50.7549 39.2993 50.5371 40.5713C50.2672 42.147 49.6529 44.4902 49.0471 47.0498C48.7801 48.1813 48.4919 49.3536 48.2192 50.5202C47.9845 51.5294 47.6008 53.1473 47.5052 53.5057C47.411 53.8557 46.7813 57.1532 46.4355 58.6404C46.1881 59.7016 45.8873 60.5675 45.7383 61.1634C45.5992 61.7215 45.5739 62.0377 45.5739 62.0377C45.5739 62.0377 47.2494 62.0897 47.6134 62.0897C49.7429 62.0911 52.3391 62.0602 55.0041 62.0518C58.8372 62.0391 62.7419 62.0462 65.012 62.0462C66.686 62.0462 66.8041 62.0897 66.8041 62.0897V13.5036H47.4658L37.8431 32.7998L27.9842 13.5036L8.77659 13.5064L8.78081 13.505Z" fill="#4F1B7F"/>
</g>
<defs>
<clipPath id="clip0_1_69">
<rect width="75.5906" height="75.5906" fill="white"/>
</clipPath>
</defs>
</svg>
