<svg width="76" height="76" viewBox="0 0 76 76" fill="none" xmlns="http://www.w3.org/2000/svg">
<g clip-path="url(#clip0_1_73)">
<path fill-rule="evenodd" clip-rule="evenodd" d="M11.3721 63.5783C11.445 63.1592 12.5931 59.6829 12.7617 59.1225L14.149 54.7144C14.9805 52.1448 15.7459 49.5318 16.5797 46.9554C16.6389 46.7731 16.6913 46.5954 16.7506 46.4086C16.8531 46.0851 16.8212 46.1489 17.0217 45.9621L19.2542 43.8002C19.3817 43.6795 19.5002 43.577 19.6232 43.454L19.9763 43.0918C20.4729 42.6248 20.9559 42.1395 21.4525 41.6703C21.5892 41.5427 21.7008 41.4356 21.8375 41.308C21.9628 41.1896 22.063 41.0643 22.1906 40.9458L22.9127 40.2351C23.1565 39.9845 23.4184 39.7749 23.6668 39.5243C24.3297 38.8569 25.0268 38.2304 25.6897 37.5606L26.6054 36.6676C26.8538 36.4353 27.0793 36.1915 27.3276 35.9569C27.8242 35.4876 28.3072 35.0047 28.8038 34.5354L29.5419 33.811C29.6785 33.6834 29.7925 33.5786 29.9269 33.4487C29.9975 33.3804 30.0339 33.3212 30.1023 33.2506C30.1638 33.1868 30.2139 33.1458 30.28 33.0843C30.7766 32.6127 31.2618 32.132 31.7561 31.6627L33.2164 30.2276C33.7153 29.756 34.1959 29.2753 34.6926 28.8061C34.8292 28.6762 34.9409 28.5714 35.0775 28.4438L35.4306 28.0816C35.6881 27.8333 35.9273 27.6169 36.1847 27.3709C36.4353 27.134 36.6699 26.8834 36.9228 26.6465L40.595 23.0904C40.8433 22.8011 41.0757 22.612 41.3377 22.3683C42.5359 21.2452 43.8299 19.9034 45.0144 18.7872L47.2378 16.6481C47.452 16.4476 47.8005 16.156 47.9691 15.9487C48.2607 15.591 48.7368 15.1969 49.0717 14.8689C49.14 14.8028 49.181 14.7368 49.2471 14.673L51.639 12.3607C51.7621 12.2468 52.3111 11.7571 52.3498 11.6773C53.2542 12.0145 54.4 12.846 55.2156 13.4519L56.0676 14.124C56.3706 14.37 56.6325 14.6024 56.9196 14.8302C57.0608 14.9441 57.1816 15.0899 57.3228 15.2038C57.931 15.6936 59.9152 17.6709 60.4164 18.2814C60.7012 18.6277 61.0451 18.9535 61.3231 19.3066C62.1386 20.3431 62.6922 20.9285 63.4599 22.1541C63.6831 22.5095 64.4349 23.7283 64.4577 24.2135C64.0704 24.4641 63.6968 24.9493 63.346 25.2819L62.8015 25.8264C62.4439 26.2 62.0407 26.5143 61.6853 26.8902L60.7672 27.7787C60.5098 28.0179 60.2979 28.2457 60.0382 28.4849L58.7671 29.7355C58.7033 29.7993 58.6555 29.8403 58.5894 29.9018C57.5962 30.8313 56.628 31.8085 55.6348 32.7425L54.703 33.6492C54.6415 33.7107 54.6051 33.7677 54.5436 33.8315C54.1905 34.1959 53.8055 34.5285 53.4364 34.8748L51.9762 36.31C51.8441 36.433 51.737 36.5355 51.6071 36.6585C51.4659 36.7907 51.3976 36.8681 51.254 37.0207C51.0308 37.2599 50.7438 37.5014 50.5 37.7315L50.1469 38.0937C50.0171 38.219 49.9077 38.317 49.7779 38.4422C49.2197 38.9708 48.6434 39.4947 48.108 40.0437L47.0328 41.1167C46.969 41.1805 46.9212 41.2215 46.8551 41.283L43.9164 44.1397C43.7911 44.2672 43.6636 44.3789 43.5314 44.5019C43.4039 44.6226 43.3036 44.7456 43.1783 44.8641L40.98 46.9645C40.8479 47.0898 40.7431 47.2173 40.611 47.3426L40.0483 47.8711C39.2737 48.6616 38.4445 49.4065 37.6563 50.1834C37.5903 50.2494 37.5492 50.3132 37.4809 50.3816L36.5811 51.2586C36.3373 51.5001 36.0936 51.7165 35.8407 51.9534C35.5947 52.1858 35.3646 52.4295 35.1186 52.6642C34.6219 53.1334 34.1367 53.6164 33.6401 54.0834L32.7106 54.9923C32.6446 55.063 32.6172 55.1085 32.5489 55.1723L29.2571 58.3616C29.125 58.4869 29.0453 58.6167 28.8266 58.6805L24.8855 59.7877C23.382 60.2068 21.8899 60.6488 20.3841 61.0474C18.876 61.4461 17.3634 61.9154 15.8895 62.3186L12.5065 63.2663C12.1421 63.3688 11.7343 63.5055 11.3675 63.5783H11.3721ZM11.814 7.34446C10.6522 7.50165 9.83438 7.88436 9.13274 8.47894C8.43337 9.07123 7.88436 9.80477 7.5791 10.7297C7.21233 11.8391 7.31257 13.0305 7.31257 14.2743V61.8835C7.31257 62.4758 7.27384 63.223 7.34218 63.797C7.47431 64.911 7.91398 65.8017 8.47893 66.4624C9.08262 67.1686 9.79337 67.7107 10.7274 68.016C11.8436 68.3805 13.0259 68.2825 14.272 68.2825C30.141 68.2825 46.01 68.2825 61.8812 68.2825C62.4735 68.2825 63.2184 68.3213 63.7948 68.2529C65.9065 68.0001 67.451 66.5717 68.0114 64.8677C68.3782 63.7538 68.278 62.5714 68.278 61.3254V13.7162C68.278 11.9598 68.3805 10.634 67.1139 9.13957C66.5262 8.44477 65.7881 7.88664 64.8654 7.58594C63.7492 7.22145 62.5714 7.31941 61.3208 7.31941H13.7116C13.1376 7.31941 12.3585 7.2784 11.814 7.3513V7.34446Z" fill="#E90000"/>
<path fill-rule="evenodd" clip-rule="evenodd" d="M25.3958 48.9623C25.5803 48.9623 26.0177 48.9532 26.1658 48.878C26.307 48.8051 27.0588 48.0192 27.2387 47.8347L28.9496 46.2127C29.027 46.1398 29.068 46.0783 29.1432 46.0008C29.4895 45.6477 29.8813 45.3243 30.2253 44.9643C30.4326 44.7456 30.6604 44.5907 30.8609 44.3538C31.0477 44.1306 31.3028 43.9346 31.5169 43.7319C31.5921 43.6613 31.6377 43.5929 31.7106 43.52C31.9885 43.2489 32.3051 43.0006 32.5648 42.7227C32.6537 42.6293 32.6856 42.5792 32.7744 42.4972C32.9931 42.2944 33.2141 42.1236 33.41 41.8867C33.6196 41.6361 34.0205 41.3103 34.2757 41.0711L38.1005 37.3579C38.2532 37.2167 38.383 37.0959 38.5356 36.9524L39.7954 35.72C39.9366 35.5764 40.0824 35.4534 40.2305 35.3145C41.0962 34.5058 41.9163 33.6538 42.7819 32.8496C43.0735 32.5785 43.3469 32.296 43.6385 32.0227L45.1397 30.5647C45.4928 30.2207 45.8459 29.936 46.1899 29.5601L49.1924 26.6715C49.3359 26.5394 49.4544 26.3981 49.5956 26.266C49.853 26.0245 50.2517 25.7011 50.4613 25.4482C50.6048 25.2751 50.7324 25.1771 50.8873 25.0313L52.9968 23.0084C52.8806 22.7419 51.5001 21.5755 51.1515 21.2566C49.9555 20.1631 47.8392 18.6596 46.4519 18.0855C46.0601 18.409 45.4974 19.0104 45.0737 19.4068L44.6249 19.8601C44.3242 20.1608 44.0075 20.4456 43.6932 20.7372C43.5975 20.826 43.5633 20.8761 43.4676 20.9786L42.7933 21.6142C42.4812 21.9058 42.1874 22.2134 41.8775 22.5049L38.2486 26.0428C37.9365 26.3366 37.6472 26.61 37.3328 26.9039L34.8292 29.3528C34.7472 29.4302 34.688 29.4849 34.6037 29.5646L31.8837 32.2049C31.763 32.3507 31.5716 32.5102 31.4235 32.6491L30.7333 33.3303C30.3506 33.6948 29.9656 34.0205 29.6079 34.4169C29.4644 34.5741 29.2958 34.7017 29.1432 34.8566C29.0544 34.9454 29.0065 35.016 28.9177 35.0981L17.4363 46.2059C17.3565 46.2833 17.3816 46.24 17.3406 46.3357C17.4408 46.5157 17.8417 46.8278 18.0536 46.969C19.728 48.0762 23.4891 48.9646 25.3844 48.9646L25.3958 48.9623Z" fill="#FAB408"/>
<path fill-rule="evenodd" clip-rule="evenodd" d="M33.3622 53.7075C33.5239 53.5526 33.6651 53.4228 33.8292 53.2701L36.0844 51.0718C36.2621 50.8554 37.6996 49.5478 37.9023 49.3063C38.2554 48.8849 38.7885 48.4953 39.0619 48.1923C39.661 47.5272 41.0415 46.3517 41.5381 45.7799L49.2903 38.2646C49.3746 38.1871 49.4566 38.1188 49.5295 38.0368L50.2061 37.3738C50.3588 37.2303 50.4863 37.0777 50.639 36.9365C51.254 36.3601 51.8509 35.7633 52.4682 35.1824C52.6254 35.0343 52.7598 34.8771 52.917 34.729C53.3316 34.3395 53.6642 34.041 54.0583 33.6264C54.1335 33.5467 54.2018 33.4898 54.2839 33.4146C54.5937 33.123 54.8875 32.8177 55.1996 32.5239L55.8899 31.8746C56.1587 31.599 57.7488 30.0248 57.9333 29.9018C57.9128 28.9177 56.1929 26.5918 55.6188 25.897C55.1358 25.3161 53.8237 23.7716 53.3407 23.3501C53.1653 23.4572 52.9876 23.6964 52.8191 23.8513L49.2334 27.2775C49.1377 27.3663 49.0717 27.4575 48.976 27.5486L47.7003 28.7651C47.6069 28.8516 47.534 28.9177 47.4428 29.0065C47.354 29.0908 47.2925 29.1774 47.2014 29.2617L41.5837 34.6743C41.4926 34.7586 41.4105 34.827 41.324 34.9135C40.415 35.8362 38.9685 37.2303 38.014 38.1165L35.966 40.087C35.6516 40.4356 34.8247 41.1645 34.4306 41.5746L33.9294 42.0712C33.5831 42.3947 33.2551 42.7273 32.9111 43.0485L28.8311 46.9781C28.519 47.3495 28.1181 47.6023 27.8037 47.9737L26.7922 48.9555C26.5667 49.1901 26.4824 49.1264 26.4255 49.5842C26.1954 51.4158 27.216 56.833 28.7901 58.1361L33.3622 53.7166V53.7075Z" fill="#FAB408"/>
<path fill-rule="evenodd" clip-rule="evenodd" d="M28.2753 58.3411C28.2388 58.2728 28.0566 58.0586 27.9791 57.9561C27.8698 57.808 27.7878 57.6941 27.6921 57.5278C27.519 57.2271 27.3732 56.9196 27.2319 56.587C26.4597 54.7645 25.758 51.3406 25.9653 49.4134C24.2932 49.525 22.5072 49.0899 20.9878 48.6844C19.9262 48.3997 18.8213 47.9964 17.9078 47.436C17.696 47.3062 17.1948 46.9599 17.1219 46.821L13.3175 58.9858C13.5203 59.2318 13.7321 59.4482 13.9896 59.676L15.9806 61.7673C16.2198 61.7673 17.2472 61.437 17.5479 61.355C21.1313 60.3686 24.6828 59.3275 28.2775 58.3434L28.2753 58.3411Z" fill="white"/>
<path fill-rule="evenodd" clip-rule="evenodd" d="M28.2753 58.3411C24.6805 59.3252 21.1267 60.3663 17.5456 61.3527C17.2449 61.4347 16.2198 61.765 15.9783 61.765L13.9873 59.6738C13.7299 59.446 13.518 59.2295 13.3152 58.9835L17.1196 46.8187C17.1925 46.9576 17.6937 47.3039 17.9055 47.4338C18.819 47.9942 19.9239 48.3996 20.9855 48.6821C22.5027 49.0876 24.2909 49.5227 25.963 49.4111C25.758 51.3383 26.4574 54.7623 27.2296 56.5847C27.3709 56.9173 27.5167 57.2248 27.6898 57.5256C27.7855 57.6919 27.8652 57.8058 27.9768 57.9538C28.0543 58.0563 28.2365 58.2705 28.273 58.3388L28.2753 58.3411ZM28.7901 58.127C27.216 56.8262 26.1954 51.409 26.4255 49.5751C26.4824 49.1172 26.5667 49.1787 26.7922 48.9464L27.8037 47.9645C28.1181 47.5909 28.5213 47.3403 28.8311 46.969L32.9111 43.0394C33.2551 42.7182 33.5831 42.3856 33.9294 42.0621L34.4306 41.5655C34.827 41.1554 35.6539 40.4287 35.966 40.0779L38.014 38.1074C38.9662 37.2212 40.415 35.827 41.324 34.9044C41.4105 34.8156 41.4903 34.7495 41.5837 34.6652L47.2014 29.2526C47.2925 29.1683 47.354 29.0817 47.4428 28.9974C47.5362 28.9109 47.6069 28.8448 47.7003 28.7559L48.976 27.5395C49.0717 27.4506 49.1377 27.3595 49.2334 27.2684L52.8191 23.8422C52.9876 23.6873 53.1653 23.4481 53.3407 23.341C53.8214 23.7624 55.1358 25.307 55.6188 25.8879C56.1951 26.5827 57.9128 28.9063 57.9333 29.8927C57.7488 30.0157 56.1587 31.5899 55.8899 31.8655L55.1996 32.5147C54.8875 32.8086 54.5959 33.1139 54.2839 33.4055C54.2041 33.4806 54.1335 33.5399 54.0583 33.6173C53.6665 34.0319 53.3316 34.3304 52.917 34.7199C52.7598 34.8703 52.6254 35.0252 52.4682 35.1732C51.8509 35.7519 51.254 36.3487 50.639 36.9273C50.4863 37.0709 50.3588 37.2235 50.2061 37.3647L49.5295 38.0276C49.4566 38.1097 49.3746 38.178 49.2903 38.2554L41.5381 45.7708C41.0392 46.3448 39.661 47.518 39.0619 48.1832C38.7885 48.4862 38.2577 48.8758 37.9023 49.2972C37.6996 49.5387 36.2621 50.8463 36.0844 51.0627L33.8292 53.261C33.6651 53.4137 33.5262 53.5458 33.3622 53.6984L28.7901 58.1178V58.127ZM25.3935 48.9623C23.4959 48.9623 19.7371 48.0739 18.0627 46.9667C17.8509 46.8255 17.4522 46.5134 17.3497 46.3334C17.3884 46.2378 17.3634 46.2833 17.4454 46.2036L28.9268 35.0958C29.0156 35.0115 29.0635 34.9432 29.1523 34.8543C29.3049 34.6994 29.4735 34.5718 29.617 34.4146C29.9747 34.0205 30.362 33.6948 30.7424 33.328L31.4326 32.6469C31.5807 32.5079 31.7698 32.3507 31.8928 32.2026L34.6128 29.5624C34.6971 29.4849 34.7563 29.428 34.8383 29.3505L37.3419 26.9016C37.654 26.6077 37.9456 26.3344 38.2577 26.0405L41.8867 22.5027C42.1965 22.2088 42.4903 21.9035 42.8024 21.612L43.4767 20.9764C43.5724 20.8739 43.6066 20.8237 43.7023 20.7349C44.0166 20.4433 44.3333 20.1586 44.634 19.8578L45.0828 19.4045C45.5042 19.0081 46.0692 18.4067 46.461 18.0832C47.8483 18.6573 49.9647 20.1608 51.1606 21.2543C51.5092 21.5732 52.8874 22.7396 53.0059 23.0061L50.8964 25.029C50.7415 25.1726 50.6162 25.2728 50.4704 25.4459C50.2608 25.6965 49.8621 26.0223 49.6047 26.2637C49.4635 26.3959 49.345 26.5371 49.2015 26.6692L46.199 29.5578C45.855 29.9337 45.5019 30.2185 45.1488 30.5624L43.6476 32.0204C43.356 32.2938 43.0826 32.5763 42.791 32.8473C41.9254 33.6515 41.1053 34.5058 40.2396 35.3122C40.0915 35.4512 39.9435 35.5742 39.8045 35.7177L38.5447 36.9501C38.3921 37.0936 38.2623 37.2144 38.1096 37.3556L34.2848 41.0689C34.0296 41.308 33.6287 41.6361 33.4191 41.8844C33.2209 42.1213 33.0022 42.2922 32.7835 42.4949C32.6947 42.5769 32.6628 42.627 32.574 42.7204C32.312 42.9961 31.9953 43.2467 31.7197 43.5178C31.6468 43.5884 31.6035 43.6567 31.526 43.7296C31.3119 43.9324 31.0568 44.1283 30.87 44.3515C30.6695 44.5907 30.444 44.7456 30.2344 44.9621C29.8904 45.3197 29.4986 45.6455 29.1523 45.9986C29.0771 46.076 29.0384 46.1375 28.9587 46.2104L27.2479 47.8324C27.0679 48.0169 26.3161 48.8051 26.1749 48.8758C26.0268 48.9509 25.5894 48.96 25.4049 48.96L25.3935 48.9623ZM46.8369 17.7051C47.1262 17.4522 48.3153 16.2175 48.5226 16.1127C48.6092 16.1856 48.9509 16.3269 49.0739 16.3906C50.0307 16.8895 50.7301 17.3565 51.5889 17.9876L52.9876 19.0856L56.1268 22.145C56.1951 22.227 56.243 22.2908 56.3159 22.3614L56.7009 22.7852C56.8239 22.9355 56.9742 23.0813 57.0927 23.2339L57.6508 23.9219C58.0404 24.3684 58.5552 25.0951 58.8673 25.5712C59.2045 26.0838 59.8241 27.0884 59.9517 27.7923C59.9813 27.9586 59.8309 28.0361 59.6145 28.2388C59.3525 28.4849 58.5529 29.3255 58.3479 29.4394C58.2819 29.2913 58.2181 29.0771 58.1474 28.904C57.7511 27.9108 56.8376 26.6738 56.1746 25.799C55.956 25.5097 55.7373 25.2705 55.514 24.9971L54.1312 23.4503C53.8784 23.2203 53.6733 22.9537 53.4364 22.7123L52.3133 21.6233L50.3542 19.9672C50.0694 19.7553 49.8189 19.5503 49.5159 19.3407C49.2288 19.1403 48.9464 18.9626 48.6593 18.7621C48.2242 18.4591 46.8802 17.7415 46.8346 17.7028L46.8369 17.7051ZM48.8735 15.7368C48.9145 15.6457 48.894 15.6799 48.9714 15.6047L50.5342 14.1263C51.557 14.5545 53.8328 16.3679 54.7463 17.1948C55.4047 17.7894 56.3546 18.7006 56.9606 19.343L59.3753 22.0379C59.8537 22.5961 60.5257 23.4891 60.9312 24.095C61.118 24.3752 61.9336 25.6282 61.9769 25.9653C61.8402 26.0519 61.6921 26.2159 61.5668 26.3344C61.1431 26.733 60.8811 27.036 60.3799 27.4711C60.3162 27.3732 60.2341 27.077 60.1749 26.9403C59.676 25.799 58.701 24.4071 57.8741 23.4139L56.1792 21.4958C55.9582 21.2452 55.7099 21.0014 55.4798 20.7622C55.2338 20.5071 55.0037 20.2725 54.744 20.0333L53.99 19.3248C53.6916 19.0309 53.1676 18.6004 52.8168 18.3156C52.6778 18.204 52.5571 18.0992 52.4181 17.999C52.1379 17.7962 51.8759 17.5843 51.5798 17.3725C51.3064 17.1766 51.0148 16.9943 50.721 16.7961C50.4112 16.5866 50.1287 16.4225 49.812 16.2403L48.8712 15.7368H48.8735ZM50.9032 13.7299C51.3133 13.4292 52.2518 12.3653 52.4682 12.2491C53.2975 12.5635 55.5732 14.2743 56.3273 14.9623C56.628 15.2357 57.1975 15.689 57.48 15.9897C57.6098 16.1264 57.7465 16.2107 57.8695 16.3496L61.0474 19.7121C61.4529 20.236 61.8994 20.7326 62.3277 21.3295C62.4325 21.4753 62.5099 21.6028 62.6238 21.7509C62.7263 21.8853 62.822 22.0288 62.9154 22.1746C63.1888 22.6052 63.7925 23.5255 63.9292 24.0586L63.1523 24.799C62.961 25.0222 62.5851 25.389 62.3755 25.5507L62.2981 25.4391C61.888 24.6851 61.8106 24.5165 61.2707 23.726C60.8743 23.1451 60.4551 22.5915 60.036 22.0607L59.0222 20.8625L55.0561 16.8212C54.9832 16.7506 54.924 16.7187 54.8511 16.6503L54.2884 16.156C53.1312 15.2607 52.4682 14.6411 51.1105 13.8802L50.9009 13.7299H50.9032ZM11.3698 63.5784C11.7365 63.5032 12.1443 63.3688 12.5088 63.2663L15.8917 62.3186C17.3656 61.9154 18.8783 61.4484 20.3863 61.0474C21.8944 60.6488 23.3865 60.2046 24.8878 59.7877L28.8288 58.6805C29.0475 58.6167 29.1273 58.4869 29.2594 58.3616L32.5512 55.1723C32.6172 55.1085 32.6446 55.0607 32.7129 54.9923L33.6424 54.0834C34.139 53.6141 34.6242 53.1335 35.1208 52.6642C35.3669 52.4318 35.5969 52.1858 35.843 51.9534C36.0958 51.7165 36.3373 51.5001 36.5833 51.2586L37.4832 50.3816C37.5515 50.3155 37.5925 50.2494 37.6586 50.1834C38.4468 49.4065 39.276 48.6616 40.0505 47.8711L40.6132 47.3426C40.7454 47.2196 40.8501 47.0898 40.9823 46.9645L43.1806 44.8641C43.3082 44.7434 43.4061 44.6226 43.5337 44.5019C43.6658 44.3789 43.7934 44.2672 43.9187 44.1397L46.8574 41.283C46.9234 41.2215 46.9713 41.1805 47.0351 41.1167L48.1103 40.0437C48.6457 39.4947 49.222 38.9708 49.7801 38.4423C49.91 38.3192 50.0193 38.219 50.1492 38.0937L50.5023 37.7315C50.746 37.5014 51.0331 37.2599 51.2563 37.0207C51.3998 36.8681 51.4705 36.7907 51.6094 36.6585C51.7415 36.5355 51.8486 36.4353 51.9785 36.31L53.4387 34.8748C53.8077 34.5285 54.1927 34.1959 54.5458 33.8315C54.6073 33.7677 54.6438 33.7107 54.7053 33.6492L55.637 32.7425C56.6303 31.8063 57.5984 30.8313 58.5917 29.9018C58.6577 29.8403 58.7056 29.7993 58.7694 29.7355L60.0405 28.4849C60.2979 28.2457 60.5121 28.0179 60.7695 27.7787L61.6875 26.8902C62.0429 26.5143 62.4461 26.2 62.8038 25.8264L63.3482 25.2819C63.6991 24.9493 64.0727 24.4641 64.4599 24.2135C64.4349 23.726 63.6854 22.5095 63.4622 22.1541C62.6944 20.9285 62.1409 20.3431 61.3253 19.3066C61.0497 18.9557 60.7034 18.6277 60.4187 18.2814C59.9175 17.6732 57.9356 15.6936 57.3251 15.2038C57.1838 15.0921 57.0631 14.9441 56.9218 14.8302C56.6348 14.6001 56.3728 14.3677 56.0699 14.124L55.2179 13.4519C54.4023 12.846 53.2565 12.0145 52.3521 11.6773C52.3133 11.7571 51.762 12.2469 51.6413 12.3608L49.2493 14.673C49.181 14.739 49.14 14.8028 49.0739 14.8689C48.7391 15.1969 48.2629 15.591 47.9714 15.9487C47.8028 16.1583 47.4542 16.4476 47.2401 16.6481L45.0167 18.7872C43.8321 19.9034 42.5382 21.2452 41.3399 22.3683C41.0779 22.6143 40.8456 22.8011 40.5973 23.0904L36.925 26.6465C36.6722 26.8857 36.4375 27.134 36.187 27.3709C35.9273 27.6146 35.6881 27.8333 35.4329 28.0816L35.0798 28.4439C34.9431 28.5714 34.8315 28.6785 34.6948 28.8061C34.1959 29.2753 33.7175 29.7537 33.2186 30.2276L31.7584 31.6628C31.2618 32.132 30.7766 32.6127 30.2822 33.0843C30.2184 33.1458 30.166 33.1868 30.1045 33.2506C30.0362 33.3212 29.9997 33.3804 29.9291 33.4487C29.7924 33.5786 29.6785 33.6834 29.5441 33.811L28.806 34.5354C28.3094 35.0047 27.8242 35.4876 27.3299 35.9569C27.0816 36.1915 26.8537 36.4353 26.6077 36.6676L25.6919 37.5606C25.029 38.2304 24.3319 38.8569 23.669 39.5243C23.4207 39.7749 23.1587 39.9845 22.915 40.2351L22.1928 40.9458C22.0653 41.0643 21.9673 41.1896 21.8397 41.3081C21.7031 41.4356 21.5892 41.5427 21.4547 41.6703C20.9559 42.1395 20.4752 42.6225 19.9786 43.0918L19.6255 43.454C19.5025 43.5793 19.384 43.6818 19.2564 43.8002L17.0239 45.9621C16.8257 46.1466 16.8576 46.0851 16.7528 46.4086C16.6936 46.5931 16.6412 46.7731 16.582 46.9554C15.7505 49.5318 14.9828 52.1425 14.1513 54.7144L12.764 59.1225C12.5954 59.6829 11.4472 63.1592 11.3743 63.5784H11.3698Z" fill="black"/>
<path fill-rule="evenodd" clip-rule="evenodd" d="M46.8392 17.7028C46.8847 17.7415 48.2311 18.4591 48.6639 18.7621C48.9509 18.9626 49.2311 19.1403 49.5204 19.3407C49.8212 19.5503 50.074 19.7553 50.3588 19.9672L52.3179 21.6233L53.441 22.7123C53.6756 22.956 53.8807 23.2203 54.1358 23.4503L55.5186 24.9971C55.7418 25.2728 55.9605 25.5097 56.1792 25.799C56.8444 26.6738 57.7579 27.9131 58.152 28.904C58.2204 29.0749 58.2864 29.2913 58.3525 29.4394C58.5552 29.3255 59.3571 28.4849 59.6191 28.2388C59.8355 28.0338 59.9881 27.9586 59.9562 27.7923C59.8264 27.0884 59.2068 26.0861 58.8719 25.5712C58.5598 25.0951 58.0449 24.3684 57.6554 23.9219L57.0973 23.2339C56.9788 23.079 56.8285 22.9332 56.7054 22.7851L56.3205 22.3614C56.2476 22.2908 56.1997 22.227 56.1314 22.145L52.9922 19.0856L51.5935 17.9876C50.7347 17.3543 50.0376 16.8895 49.0785 16.3906C48.9555 16.3269 48.6138 16.1856 48.5272 16.1127C48.3199 16.2175 47.1308 17.4522 46.8414 17.7051L46.8392 17.7028Z" fill="#E90000"/>
<path fill-rule="evenodd" clip-rule="evenodd" d="M50.9055 13.7299L51.1151 13.8802C52.4728 14.6411 53.1357 15.2607 54.293 16.156L54.8557 16.6503C54.9286 16.7187 54.9878 16.7506 55.0607 16.8212L59.0268 20.8625L60.0405 22.0607C60.4574 22.5915 60.8789 23.1451 61.2752 23.726C61.8151 24.5187 61.8949 24.685 62.3026 25.4391L62.3801 25.5507C62.5897 25.389 62.9656 25.0245 63.1569 24.7989L63.9337 24.0586C63.7971 23.5255 63.1911 22.6052 62.92 22.1746C62.8266 22.0288 62.7309 21.8853 62.6284 21.7509C62.5168 21.6028 62.437 21.4753 62.3323 21.3295C61.904 20.7326 61.4575 20.236 61.052 19.712L57.8741 16.3496C57.7534 16.2107 57.6144 16.1264 57.4845 15.9897C57.1998 15.689 56.6326 15.2357 56.3319 14.9623C55.5778 14.2743 53.302 12.5635 52.4728 12.2491C52.2564 12.3653 51.3178 13.4269 50.9078 13.7299H50.9055Z" fill="#E90000"/>
<path fill-rule="evenodd" clip-rule="evenodd" d="M48.8758 15.7368L49.8166 16.2403C50.1332 16.4225 50.4157 16.5866 50.7255 16.7961C51.0194 16.9943 51.311 17.1766 51.5844 17.3725C51.8805 17.5843 52.1425 17.7962 52.4227 17.999C52.5617 18.0992 52.6824 18.204 52.8214 18.3156C53.1699 18.6026 53.6961 19.0309 53.9946 19.3248L54.7486 20.0333C55.0083 20.2725 55.2384 20.5071 55.4844 20.7622C55.7168 21.0014 55.9628 21.2452 56.1838 21.4958L57.8787 23.4139C58.7056 24.4071 59.6806 25.799 60.1795 26.9403C60.2387 27.077 60.3207 27.3732 60.3845 27.4711C60.8857 27.036 61.1477 26.733 61.5714 26.3344C61.6967 26.2159 61.8447 26.0519 61.9814 25.9653C61.9382 25.6282 61.1249 24.3752 60.9358 24.095C60.5303 23.4891 59.8583 22.5961 59.3799 22.0379L56.9651 19.343C56.3592 18.7006 55.4115 17.7916 54.7509 17.1948C53.8374 16.3679 51.5616 14.5545 50.5387 14.1263L48.976 15.6047C48.8985 15.6799 48.919 15.6434 48.878 15.7368H48.8758Z" fill="white"/>
</g>
<defs>
<clipPath id="clip0_1_73">
<rect width="75.5906" height="75.5906" fill="white"/>
</clipPath>
</defs>
</svg>
