<svg width="76" height="76" viewBox="0 0 76 76" fill="none" xmlns="http://www.w3.org/2000/svg">
<g clip-path="url(#clip0_1_8)">
<path d="M67.3308 8.99689H8.2585V66.5924H67.3308V8.99689Z" fill="#0E4E98"/>
<path fill-rule="evenodd" clip-rule="evenodd" d="M6.51819 7.29987H69.0724V68.2894H6.51819V7.29987ZM8.25849 8.99688H67.3308V66.5924H8.25849V8.99688Z" fill="#FF0000"/>
<path fill-rule="evenodd" clip-rule="evenodd" d="M55.4377 30.6775C55.4377 26.9639 54.4065 24.3363 52.7973 21.8499C52.353 21.1637 51.3931 20.0854 50.8482 19.4998C49.1779 17.701 46.3033 16.0829 43.8883 15.4616C42.8494 15.2108 41.6986 14.8365 39.7851 14.8365L15.2299 14.8429V60.7553L28.6902 60.7515L28.6876 47.7852C29.053 47.663 33.2453 47.7406 33.9926 47.7406C39.188 47.7406 43.1002 48.1709 47.6362 45.5229C52.2906 42.8061 55.4364 37.8513 55.4364 32.1695V30.6788L55.4377 30.6775ZM28.6978 37.407L28.6902 25.1943C29.0314 25.0721 32.7933 25.1472 33.477 25.1472C36.6992 25.1472 38.8316 24.7004 40.8112 27.4719C42.7119 30.1339 42.288 35.7584 38.0945 37.1868C36.9512 37.5763 32.7781 37.4274 31.1256 37.4274C30.526 37.4274 29.2122 37.4974 28.6978 37.407Z" fill="white"/>
<path fill-rule="evenodd" clip-rule="evenodd" d="M46.7438 16.5221C46.7311 16.5132 46.7209 16.5043 46.7132 16.4966C47.1524 16.5183 48.535 17.1383 48.9755 17.3547C54.0475 19.8461 57.0316 24.7755 57.0328 30.8494V32.7412C57.0341 38.2141 54.176 44.0652 49.761 46.5681C48.0716 47.5255 46.6177 47.943 44.2345 48.0385C44.964 47.7292 50.3695 49.2976 55.9545 43.9787C58.3352 41.7113 60.8101 37.6374 60.8075 33.0289L60.8088 30.8494C60.8152 26.8595 59.1703 22.8951 56.5694 20.2C54.325 17.8754 51.0901 15.6882 46.4943 15.6819L45.4618 15.6831C44.9105 15.6844 44.414 15.5889 43.8883 15.4616C44.9627 15.7379 45.9137 16.0918 46.7438 16.5234V16.5221Z" fill="#F7AA0C"/>
<path fill-rule="evenodd" clip-rule="evenodd" d="M30.857 48.8647C30.7653 49.6782 30.8417 50.9704 30.8417 51.8361C30.8417 52.9271 30.7806 60.3518 30.8723 60.7604L36.1988 60.749C36.3096 60.2626 36.2307 58.4243 36.2307 57.7992C36.2307 56.5503 36.2841 49.458 36.2128 48.8546L30.8583 48.8635L30.857 48.8647Z" fill="#F7AA0C"/>
</g>
<defs>
<clipPath id="clip0_1_8">
<rect width="75.5906" height="75.5906" fill="white"/>
</clipPath>
</defs>
</svg>
