<svg width="80" height="80" viewBox="0 0 80 80" fill="none" xmlns="http://www.w3.org/2000/svg">
<g clip-path="url(#clip0_5_14)">
<path fill-rule="evenodd" clip-rule="evenodd" d="M0 -2.37475e-05H22.1277V22.1277C14.7518 22.1277 7.3759 22.1277 0 22.1277V-2.37475e-05ZM79.0254 72.7042V79.0269H75.8641V75.8655H72.7028V66.3831H69.5414V69.5444H63.2188V72.7057H66.3801V79.0283H60.0575V72.7057H56.8962V79.0283H50.5736V75.867H47.4123V79.0283H44.251V75.867H41.0896V79.0283H34.767V75.867H31.6057V79.0283H25.2831V75.867H31.6057V72.7057H34.767V75.867H37.9283V72.7057C42.1429 72.7057 46.3575 72.7057 50.5721 72.7057V69.5444H47.4108V66.3831H31.6057V69.5444H28.4444V66.3831H31.6057V63.2218H37.9283V60.0605H34.767V56.8991H41.0896V60.0605H44.251V41.0941H37.9283V37.9328H34.767V34.7714H37.9283V31.6101H34.767V34.7714H31.6057V28.4488H34.767V22.1262H31.6057V18.9649H34.767V15.8036H31.6057V18.9649C30.5524 18.9649 29.4977 18.9649 28.4444 18.9649V22.1262H25.2831V15.8036H31.6057V9.48095H25.2831V6.31963H31.6057V3.15832H34.767V-0.00299072H37.9283V3.15832H34.767V6.31963H31.6057V9.48095C34.767 9.48095 37.9283 9.48095 41.0896 9.48095V-0.00299072H44.251V3.15832H47.4123V12.6408H50.5736V9.47946H53.7349V15.8021C51.6269 15.8021 49.5203 15.8021 47.4123 15.8021V12.6408H44.251V18.9634H47.4123V22.1247H44.251V25.286H41.0896V28.4473H37.9283V31.6086H41.0896V37.9313H44.251V34.77H47.4123V31.6086H44.251V28.4473H47.4123V22.1247H50.5736V18.9634H53.7349V28.4473H60.0575V25.286H63.2188V28.4473H69.5414V25.286H72.7028V28.4473H69.5414V31.6086H63.2188V34.77H60.0575V41.0926H66.3801V34.77H69.5414V37.9313H72.7028V41.0926H69.5414V44.2539C67.4349 44.2539 65.3269 44.2539 63.2188 44.2539V47.4152H60.0575V50.5765H66.3801V47.4152H69.5414V50.5765H72.7028V44.2539H75.8641V50.5765H79.0254V53.7378H69.5414V56.8991C68.4882 56.8991 67.4349 56.8991 66.3801 56.8991V63.2218H75.8626V56.8991H79.0239V63.2218H75.8626V69.5444H79.0239V72.7057L79.0254 72.7042ZM3.16131 72.7042V75.8655H18.9664V60.0605H3.16131V72.7042ZM0 75.8655V56.8991H22.1277V79.0269H0L0 75.8655ZM75.8641 34.7729H79.0254V41.0955H75.8641V34.7729H72.7028V31.6116H75.8641V34.7729ZM3.16131 34.7729V37.9342C5.26786 37.9342 7.3759 37.9342 9.48394 37.9342V41.0955C7.3759 41.0955 5.26935 41.0955 3.16131 41.0955V37.9342H0V31.6116H9.48394V34.7729H3.16131ZM79.0254 15.8065V22.1292H56.8977V0.00145974H79.0254V15.8065ZM75.8641 18.9678V3.16277C70.5962 3.16277 65.3269 3.16277 60.059 3.16277V18.9678C65.3269 18.9678 70.5962 18.9678 75.8641 18.9678ZM3.16131 18.9678H18.9664V3.16277H3.16131V18.9678ZM72.7042 9.4854V15.808H63.2203V6.32408H72.7042V9.4854ZM50.5765 34.7729H56.8992V31.6116H53.7379V28.4503H47.4152V31.6116H50.5765V34.7729ZM53.7379 41.0955V47.4182H50.5765V50.5795H56.8992V37.9357H53.7379V41.097V41.0955ZM53.7379 53.7393V63.2218H63.2203V53.7393H53.7379ZM53.7379 66.3831V72.7057H56.8992V66.3831H53.7379ZM31.6102 41.0955H34.7715V44.2569H41.0941V47.4182H34.7715V50.5795H37.9328V53.7408H28.4503V56.9021H31.6116V60.0634H25.289V53.7408H9.48394V50.5795H6.32262V53.7408H0V50.5795C2.10804 50.5795 4.21459 50.5795 6.32262 50.5795V47.4182C4.21459 47.4182 2.10804 47.4182 0 47.4182V44.2569H6.32262V47.4182H12.6452V37.9342H9.48394V34.7729H12.6452V28.4503H18.9679V25.289H25.2905V28.4503H28.4518V34.7729H25.2905V37.9342H28.4518V41.0955C25.2905 41.0955 22.1292 41.0955 18.9679 41.0955V37.9342H22.1292V34.7729H18.9679V31.6116H15.8066V34.7729H12.6452V37.9342H15.8066V47.4182H12.6452V50.5795C15.8066 50.5795 18.9679 50.5795 22.1292 50.5795V47.4182H18.9679V44.2569H25.2905V47.4182C27.3985 47.4182 29.5051 47.4182 31.6131 47.4182V44.2569H28.4518V41.0955H31.6131H31.6102ZM37.9328 12.6467V15.808H41.0941V12.6467H37.9328ZM34.7715 28.4518H37.9328V25.2905H34.7715V28.4518ZM37.9328 25.2905H41.0941V22.1292H44.2554V18.9678H41.0941V22.1292H37.9328V25.2905ZM15.8051 9.4854V15.808C12.6438 15.808 9.48245 15.808 6.32114 15.808V6.32408C9.48245 6.32408 12.6438 6.32408 15.8051 6.32408V9.4854ZM15.8051 66.3846V72.7072H6.32114V63.2232H15.8051V66.3846ZM63.2203 69.5459V66.3846H60.059V69.5459H63.2203ZM44.2539 12.6467V9.4854H41.0926V12.6467H44.2539ZM47.4152 44.2569V47.4182H50.5765V44.2569H47.4152ZM47.4152 56.9006V60.0619H50.5765V56.9006H47.4152ZM25.2875 31.6131V28.4518H18.9649V31.6131H22.1262V34.7744H25.2875V31.6131ZM53.7364 75.867V72.7057H50.5751V75.867H53.7364ZM56.8977 56.9006H60.059V60.0619H56.8977V56.9006ZM37.9313 18.9678H34.77V22.1292H37.9313V18.9678ZM75.8641 25.2905H79.0254V28.4518H75.8641V25.2905ZM0 25.2905H3.16131V28.4518H0V25.2905ZM25.2875 69.5444H28.4488V72.7057H25.2875V69.5444ZM25.2875 0.00145974H28.4488V3.16277H25.2875V0.00145974ZM6.32114 25.289H9.48245V28.4503H6.32114V25.289Z" fill="#2F4156"/>
</g>
<defs>
<clipPath id="clip0_5_14">
<rect width="79.0254" height="79.0254" fill="white"/>
</clipPath>
</defs>
</svg>
