<svg width="76" height="76" viewBox="0 0 76 76" fill="none" xmlns="http://www.w3.org/2000/svg">
<g clip-path="url(#clip0_1_2)">
<path fill-rule="evenodd" clip-rule="evenodd" d="M39.6166 36.2924H33.7958V28.7068C33.9658 28.7034 33.9451 28.6697 34.1341 28.6697H38.4533C39.0988 28.6697 39.9402 28.7612 40.4519 28.8863C41.5514 29.1556 42.4748 29.8123 43.0512 30.7564C43.4232 31.3665 43.6363 31.71 43.6363 32.5747C43.6363 33.6215 43.2791 34.437 42.5869 35.1308C41.9734 35.7444 40.8023 36.2933 39.6183 36.2933L39.6166 36.2924ZM24.1063 52.9297C24.3376 52.991 24.612 53.3051 24.82 53.3051H33.1943C33.2073 53.3051 33.7579 52.9815 33.7579 52.8546V43.0158L37.7759 42.9779C37.9183 42.9779 38.5577 44.1083 38.6319 44.2249L41.9285 49.4536C42.2081 49.9127 42.4748 50.3114 42.7544 50.7679C42.971 51.1209 44.224 53.268 44.5355 53.268H54.1871C54.3061 53.268 54.5159 53.0263 54.6341 52.9262C54.7506 52.8287 54.7506 52.9383 54.7506 52.6294C54.7506 52.4559 53.986 51.3384 53.8798 51.1718L51.6111 47.6198C51.0286 46.7542 50.377 45.6255 49.8014 44.7728C49.7177 44.6494 49.6677 44.5545 49.5839 44.4268C49.4959 44.293 49.4191 44.1903 49.3449 44.0652C48.8703 43.2704 48.211 42.3367 47.7536 41.5626C47.6095 41.3184 47.2746 41.05 48.0513 40.785C48.7866 40.5348 49.7022 39.8867 50.3252 39.3784C50.9802 38.8433 51.2081 38.6259 51.6982 37.9726C52.7839 36.5271 53.7746 34.5673 53.7746 32.6877C53.7746 30.746 53.4458 29.5379 52.6363 28.0803C51.977 26.8937 51.9658 27.0145 51.2693 26.1792C50.7636 25.5734 49.4536 24.5438 48.7443 24.1227C48.1005 23.7396 47.7035 23.5368 47.014 23.2244C46 22.7644 43.8857 22.1724 42.8087 22.1724L25.721 22.2095C25.406 22.2095 24.6664 22.1353 24.4489 22.2518C23.995 22.4943 24.1063 22.8058 24.1063 23.2615V52.9297Z" fill="#0398D7"/>
<path fill-rule="evenodd" clip-rule="evenodd" d="M9.76025 9.85429H65.6042V65.6232H9.76025V9.85429ZM7.31889 68.2898H68.1578C68.2441 68.2898 68.2708 68.263 68.2708 68.1767V7.4138C68.2708 7.3275 68.2449 7.30075 68.1578 7.30075H7.31889V68.2898Z" fill="#0398D7"/>
</g>
<defs>
<clipPath id="clip0_1_2">
<rect width="75.5906" height="75.5906" fill="white"/>
</clipPath>
</defs>
</svg>
