<svg width="76" height="76" viewBox="0 0 76 76" fill="none" xmlns="http://www.w3.org/2000/svg">
<path fill-rule="evenodd" clip-rule="evenodd" d="M34.3684 68.29C35.02 67.9454 39.0842 64.7531 40.207 63.8952L42.1081 62.4162C42.2298 62.3256 42.3337 62.2326 42.4502 62.1433L45.5891 59.6586C45.8219 59.473 46.0351 59.3011 46.2706 59.1114L47.288 58.2849C47.4139 58.1855 47.5027 58.1058 47.6262 58.0083C47.7521 57.9089 47.8409 57.8295 47.9641 57.732C48.5472 57.2706 49.1252 56.8074 49.6799 56.3131L53.6976 52.8635C53.8109 52.7754 53.9165 52.6794 54.0282 52.5796L54.6983 52.0207C54.8249 51.9213 54.9269 51.8174 55.0449 51.7221L56.0598 50.8929C56.1857 50.7932 56.2857 50.7047 56.4113 50.5991L57.9484 49.0594C58.1607 48.8257 57.8451 48.9071 57.688 48.9256C57.329 48.9675 52.0966 48.9301 51.454 48.9301C51.2492 48.9301 51.0443 48.9305 50.8395 48.9301C50.3179 48.9293 50.3826 48.9754 49.9888 49.3085C48.9691 50.1702 47.9233 50.9877 46.8851 51.8283C46.4176 52.207 45.9641 52.5563 45.4969 52.929L44.1143 54.0046C43.8758 54.183 43.6638 54.3572 43.4204 54.5402C42 55.6086 40.5994 56.7025 39.1673 57.7543L38.4428 58.29C38.1934 58.4691 37.9756 58.623 37.7314 58.8078C37.4811 58.9968 37.2522 59.1532 37.0027 59.3392L34.4958 61.1652C34.3741 61.257 34.2445 61.3557 34.1228 61.4373C33.6651 61.1954 33.0324 60.7108 32.574 60.4051C32.4789 60.3412 32.4025 60.297 32.3155 60.2381C31.4689 59.6632 30.2679 58.8744 29.465 58.2901L24.9346 55.0147C24.7709 54.8922 24.6046 54.7705 24.4429 54.6466C23.6167 54.0143 22.5305 53.1885 21.7775 52.518L19.687 50.7057C19.1024 50.1271 18.4696 49.5794 17.8898 48.9996C17.747 48.8568 17.59 48.7173 17.4597 48.5691L15.9997 46.987C15.1123 45.9827 14.2571 44.9566 13.4505 43.8817L12.7301 42.8812C12.2376 42.2175 11.7985 41.479 11.3733 40.7659L10.276 38.8206C10.2265 38.7255 10.1857 38.6389 10.1332 38.5334C9.93509 38.1373 9.7345 37.7655 9.54919 37.366C8.99442 36.1687 8.45191 34.9123 8.06013 33.631L7.76034 32.6397C7.72526 32.5282 7.71989 32.3365 7.60306 32.3365H1.94849C1.94849 32.6135 2.04668 32.9782 2.10829 33.2213C2.18013 33.504 2.25046 33.7881 2.32331 34.0819C2.39364 34.3619 2.47673 34.6336 2.55075 34.9301C2.74648 35.7131 3.02512 36.6195 3.30477 37.3717C3.39692 37.62 3.50737 37.882 3.61614 38.136L4.99071 41.033C5.80062 42.6533 6.74699 44.2142 7.82228 45.6685L9.93358 48.3512C9.98125 48.4101 10.0178 48.4366 10.0655 48.4959L10.9446 49.4911C11.1907 49.7704 11.5014 50.0282 11.7251 50.3086L12.7724 51.4125C13.0978 51.7414 13.4953 52.181 13.8453 52.4598C14.1216 52.6802 14.3934 52.9995 14.647 53.2558L15.3375 53.8869C15.3919 53.9326 15.4267 53.973 15.477 54.0237C15.5719 54.1194 15.644 54.1995 15.7461 54.2773L19.7812 57.7402C19.887 57.8257 19.9684 57.8876 20.0719 57.9719L22.4716 59.8438C22.6833 60.0017 22.8795 60.1461 23.091 60.3049L24.3197 61.2222C24.5196 61.3726 24.7189 61.5064 24.926 61.661L26.8003 63.0133C27.416 63.4737 28.061 63.8739 28.6749 64.3346L29.6179 64.9896C29.7317 65.0687 29.8091 65.1242 29.9253 65.2046C30.9839 65.9371 32.0493 66.6586 33.091 67.4168L33.7233 67.8598C33.9342 68.0095 34.1388 68.1686 34.3686 68.2903L34.3684 68.29Z" fill="#FB131F"/>
<path fill-rule="evenodd" clip-rule="evenodd" d="M49.7336 13.099C49.7986 13.0211 49.7257 13.0805 49.8236 13.0498C49.9163 13.0208 49.9952 13.0362 50.1021 13.0374C52.9462 13.0715 55.971 13.0377 58.8294 13.0377C59.2788 13.0377 61.638 13.0063 61.8715 13.0559L60.326 11.633C59.8809 11.258 59.4235 10.9145 58.94 10.5917L57.4256 9.67826L56.1954 9.06492C53.5665 7.94246 51.2519 7.35278 48.2275 7.35278C47.0316 7.35278 46.0368 7.47985 44.9397 7.66013C43.7291 7.85887 42.3114 8.28036 41.201 8.77704C40.6523 9.02195 40.0762 9.26467 39.5604 9.56395L38.0436 10.4747C37.9095 10.5647 37.8074 10.629 37.6747 10.7205C37.0949 11.1215 36.4931 11.5807 35.9739 12.0618L35.3594 12.6458C35.1417 12.8375 34.9346 13.0547 34.6757 13.1915L34.0381 12.6307C33.6805 12.2898 33.2666 12.0074 32.8864 11.693C32.0629 11.0124 30.9028 10.2319 29.9229 9.70881C28.7815 9.10033 27.7614 8.59912 26.4823 8.17091C25.6716 7.89949 24.7695 7.67121 23.8416 7.52383C23.0737 7.4018 22.3173 7.31972 21.5539 7.3224C21.4084 7.32274 21.2682 7.30645 21.1786 7.30159C21.0989 7.29705 20.928 7.32307 20.7863 7.3224C18.1996 7.30998 15.8752 7.9804 13.759 8.96085C13.1077 9.26282 12.488 9.62908 11.8757 9.99719C11.0329 10.5033 10.2369 11.1196 9.50066 11.7706L9.07011 12.1701C8.99676 12.2434 8.94573 12.2982 8.87087 12.3703C8.78358 12.4546 8.7292 12.4788 8.63956 12.5687L6.69041 14.7375C6.5573 14.8947 6.45189 15.0379 6.32147 15.1986C6.18836 15.3629 6.09201 15.5002 5.96091 15.6675L3.97064 18.6556C3.52649 19.3941 2.61268 21.1999 2.40924 22.0723C2.76761 22.2442 7.27573 22.1644 8.15563 22.1644C8.64057 21.2486 9.45652 19.9621 10.1293 19.1907C10.4593 18.8123 10.7722 18.4258 11.129 18.0697C11.1925 18.0066 11.2375 17.965 11.2957 17.8985C11.3165 17.8747 11.3138 17.877 11.3377 17.8487L11.4666 17.701C11.5744 17.5898 11.7055 17.4458 11.8256 17.3532L12.7264 16.502C13.0347 16.2049 13.3897 15.9593 13.7102 15.6727C14.2169 15.2192 15.2073 14.551 15.8176 14.2463C16.3128 13.9987 16.7727 13.7572 17.2942 13.5717C18.2176 13.2429 18.5547 13.1332 19.539 12.9892C19.76 12.9567 20.0058 12.998 20.2242 12.9681C20.627 12.9129 21.1905 12.931 21.6471 12.9446C21.799 12.9491 21.8008 12.9729 21.9524 12.9775C22.2864 12.9874 22.6218 12.9904 22.9547 13.0508C24.0553 13.2504 25.1397 13.668 26.1226 14.1234L26.8102 14.4806C26.8899 14.5271 26.973 14.56 27.0532 14.6065C27.3495 14.7781 27.6424 14.9456 27.9335 15.1398C28.8288 15.7377 29.3832 16.1738 30.1203 16.8556C30.1888 16.9191 30.2371 16.9731 30.3044 17.0404C30.5153 17.2518 30.7984 17.5715 31.0188 17.7392C31.2166 17.8905 31.3571 18.0949 31.5331 18.2698C31.6023 18.339 31.6488 18.3846 31.718 18.454C31.843 18.579 31.9459 18.6819 32.0713 18.8073L32.424 19.192C32.5435 19.3161 32.6662 19.418 32.7778 19.545C32.8443 19.6202 32.8557 19.6535 32.9312 19.7295L33.4464 20.29C33.6705 20.5832 34.1859 21.1125 34.4344 21.4223C34.5781 21.6019 34.9574 22.0698 35.1367 22.1643C35.1642 22.0607 35.2161 22.0199 35.2773 21.9363L36.0337 20.8486C36.5314 20.1139 37.0677 19.4064 37.5996 18.6962L38.4297 17.6825C38.5022 17.5922 38.5181 17.5702 38.6021 17.4863L38.9705 17.0864C39.2804 16.7761 39.5666 16.4545 39.9132 16.185L40.5455 15.6805C40.6862 15.5747 40.8305 15.4748 40.9756 15.3728C41.0486 15.3211 41.1124 15.2704 41.1902 15.219L41.8724 14.795C41.9579 14.7428 42.0289 14.7126 42.1113 14.6649C43.9795 13.5848 46.1392 13.0374 48.3199 13.0374C48.5554 13.0374 48.8267 13.025 49.0577 13.0374C49.2467 13.0476 49.546 13.099 49.7338 13.099H49.7336Z" fill="#F9121F"/>
<path fill-rule="evenodd" clip-rule="evenodd" d="M61.8717 13.056C61.638 13.0065 59.2789 13.0379 58.8296 13.0379C55.9712 13.0379 52.9464 13.0715 50.1022 13.0376C49.9953 13.0364 49.9163 13.0209 49.8238 13.05C49.7259 13.0805 49.7988 13.0213 49.7338 13.0992C50.6983 13.1559 52.2483 13.5844 53.1143 13.9287C53.6297 14.1335 54.4291 14.5028 54.8789 14.7757C55.2054 14.9741 55.5599 15.1725 55.8575 15.3951C56.9887 16.2424 57.5054 16.6492 58.4684 17.732C58.9261 18.2468 59.5599 19.1485 59.8846 19.757L60.2433 20.4434C60.6379 21.2321 60.8375 21.8587 61.0861 22.7353C61.4418 23.9897 61.4055 24.359 61.5427 25.4131C61.5952 25.8175 61.5792 26.248 61.5997 26.4313C61.6296 26.697 61.645 27.6491 61.6039 27.9499C61.5809 28.1181 61.6048 28.2935 61.5955 28.4639L61.4696 29.9054C61.3471 31.2021 61.1103 32.2415 60.8086 33.4548C60.7663 33.626 60.7044 33.7205 60.7044 33.9029C61.0763 34.0817 63.0198 33.9951 63.6543 33.9951C64.6785 33.9951 65.7028 33.9951 66.7274 33.9951L66.8869 33.2943C67.3129 31.58 67.5944 29.8299 67.617 28.0014C67.6194 27.8272 67.6499 27.7891 67.6503 27.6043C67.6503 27.4606 67.6491 27.3166 67.6491 27.1731L67.586 25.5153C67.567 25.2807 67.544 24.9809 67.5089 24.7318C67.4344 24.2042 67.3809 23.7087 67.2882 23.2316C67.1919 22.7331 67.0928 22.2777 66.9602 21.8082C66.4224 19.9083 65.8399 18.6633 64.8929 16.9614C64.8385 16.8632 64.7836 16.7793 64.7316 16.6923C64.6769 16.6008 64.6299 16.5157 64.5703 16.4236C64.175 15.8121 63.4307 14.697 62.9402 14.182C62.8563 14.0939 62.8299 14.0398 62.7406 13.951L62.3257 13.5059C62.1678 13.3494 62.0377 13.2096 61.8722 13.0557L61.8717 13.056Z" fill="#FB131F"/>
<path fill-rule="evenodd" clip-rule="evenodd" d="M50.8395 40.3256L51.3377 37.9657C51.3929 37.7151 51.5814 37.7136 52.069 37.7136C52.7859 37.7136 53.6039 37.7042 54.2592 37.8281C54.7212 37.9154 55.1727 38.1062 55.1727 38.6355C55.1727 39.5978 54.5603 40.0861 53.7508 40.2251C52.9159 40.3691 51.8052 40.3256 50.8395 40.3256ZM45.8305 48.1617C46.3646 48.1617 48.8247 48.2067 49.1497 48.1311C49.1992 48.0275 49.2714 47.6232 49.3004 47.4834C49.3469 47.2611 49.3931 47.0563 49.4436 46.8275C49.5438 46.3767 49.6348 45.9359 49.7259 45.5116C49.8226 45.0595 49.9161 44.6211 50.0019 44.1899L50.2864 42.8455C50.9776 42.8455 51.3427 42.9877 51.7098 43.604C52.1993 44.4254 53.171 46.7399 53.5747 47.7623C53.6287 47.8995 53.6934 48.0118 53.7281 48.1618H58.061C57.9816 47.8206 57.8097 47.3085 57.6702 46.9857L57.0164 45.5498C56.9575 45.4323 56.905 45.3284 56.8422 45.2014L56.1006 43.8536C55.7332 43.2675 55.5332 43.0776 55.234 42.6306C55.5272 42.6243 56.491 42.3389 56.771 42.2009C57.005 42.0856 57.1804 41.9881 57.3973 41.8441C58.4551 41.1423 59.1061 39.9003 59.1061 38.6049C59.1061 37.7945 58.9088 36.8816 58.4073 36.3229C58.3514 36.261 58.3484 36.2466 58.298 36.1865C58.2235 36.0977 58.1367 36.0228 58.0538 35.9389C57.8095 35.6921 57.2986 35.3383 56.9112 35.2374C56.5087 35.1327 56.0536 35.1342 55.6321 35.1335C55.4379 35.1335 55.3766 35.1003 55.1729 35.1009L49.6408 35.0711C48.9895 35.0711 48.4453 35.0405 47.7971 35.0405L47.4402 36.7424C47.0547 38.4159 46.7203 40.2298 46.3339 41.9052L45.9661 43.6267C45.7447 44.7575 45.4612 45.9223 45.2336 47.0736C44.9932 48.2881 44.9199 48.1054 45.3363 48.1335C45.4936 48.1437 45.625 48.1618 45.83 48.1618L45.8305 48.1617Z" fill="#1F478E"/>
<path fill-rule="evenodd" clip-rule="evenodd" d="M59.4134 43.3987C59.4134 44.3841 59.3813 44.7711 59.7642 45.6907C60.372 47.1503 61.6917 47.9074 63.1949 48.2214C63.5482 48.2951 64.7138 48.3712 65.0351 48.3446L66.9105 48.2226C67.9378 48.1356 69.2406 47.5471 69.9613 46.8173C70.3019 46.473 70.5921 46.1645 70.8464 45.736C70.905 45.6369 70.975 45.5319 71.0297 45.4271C71.7566 44.0284 71.8574 43.2059 72.2158 41.6351L73.6411 35.1014L69.5848 35.0709C69.4329 35.0709 69.4151 35.416 69.3508 35.6975C69.2934 35.9508 69.2379 36.1858 69.188 36.4255C69.0868 36.9101 68.9727 37.3798 68.8751 37.8644C68.6185 39.1422 67.9382 42.4762 67.513 43.5392C67.2521 44.1909 66.8338 44.6308 66.178 44.847C65.4572 45.0847 64.3862 45.0922 63.8453 44.5593C63.4663 44.1855 63.489 43.8276 63.5002 43.3388C63.5225 42.3747 64.2807 38.8952 64.5392 37.7996C64.7516 36.8973 64.9203 35.9986 65.1293 35.1014L61.0727 35.0709C60.9525 35.0709 60.9298 35.3146 60.8909 35.5036L60.5443 37.0313C60.1822 38.5774 59.4134 41.9292 59.4134 43.3986V43.3987Z" fill="#1F478E"/>
<path fill-rule="evenodd" clip-rule="evenodd" d="M32.2786 48.1924L42.2661 48.1618C42.7752 48.1618 43.1955 48.1313 43.6796 48.1313C43.6823 48.0093 43.7204 47.8818 43.7472 47.7684C43.7729 47.6596 43.8013 47.4966 43.827 47.3873L44.2635 45.1503C43.6539 45.1503 43.1127 45.1198 42.4811 45.1198C40.6681 45.1198 38.8551 45.1198 37.042 45.1198L37.3066 43.9092C37.3542 43.7002 37.3987 43.4991 37.4392 43.3044C37.4778 43.1184 37.5495 42.8391 37.5642 42.6612C38.1346 42.6612 38.5957 42.6306 39.1622 42.6306L44.0484 42.6001C44.068 42.3646 44.6013 40.2602 44.6013 39.957H38.1788L38.6093 37.929C40.8762 37.929 43.0449 37.8984 45.3081 37.8984C45.389 37.7299 45.4226 37.4487 45.4694 37.2299L45.9226 35.1019C45.4537 35.1019 45.082 35.0714 44.6013 35.0714H35.0749C34.9499 35.6089 34.8475 36.1319 34.7241 36.6872C34.6001 37.2443 34.4811 37.7737 34.3657 38.3263C34.2531 38.8638 34.12 39.4348 34.007 39.9651C33.8875 40.5252 33.7781 41.0456 33.6492 41.6047C33.5214 42.16 33.4326 42.6716 33.3045 43.2269C33.223 43.5825 32.2784 47.9013 32.2784 48.1927L32.2786 48.1924Z" fill="#1F478E"/>
<path fill-rule="evenodd" clip-rule="evenodd" d="M25.3032 40.6946C25.3074 40.5079 25.706 38.8378 25.7827 38.5005L25.9482 37.7752C26.1629 37.7752 26.2484 37.7442 26.4709 37.7442C26.9359 37.7442 27.754 37.7034 28.1559 37.8111C29.0252 38.0443 29.1551 39.5788 27.7183 40.4361C27.3963 40.6284 27.0527 40.6172 26.6116 40.6818C26.4083 40.7117 26.1529 40.6921 25.9709 40.7169C25.707 40.7532 25.5358 40.6946 25.303 40.6946H25.3032ZM19.5257 48.1006C20.9972 48.2226 22.1586 48.1311 23.6745 48.1311L24.5933 43.8568C24.7189 43.2336 24.667 43.3016 24.901 43.3039L26.9317 43.2759C27.1108 43.2759 27.3415 43.2883 27.5142 43.274C29.2199 43.133 30.3261 42.9425 31.5958 41.5782C31.8131 41.3445 32.1465 40.8049 32.2893 40.5207C32.7746 39.555 32.8253 38.1569 32.4904 37.1025C32.4119 36.8549 32.3404 36.7365 32.1994 36.5333C32.1359 36.4421 32.0834 36.3689 32.01 36.2926C31.9209 36.1992 31.8875 36.1247 31.7923 36.0492C31.6982 35.9746 31.6507 35.9229 31.5595 35.8519C31.3168 35.6623 31.0432 35.4796 30.756 35.3648C29.9486 35.0429 29.8815 35.2114 29.2449 35.1241C28.7498 35.0565 28.0963 35.1014 27.5464 35.1018C27.2278 35.1021 27.0313 35.0707 26.7169 35.0712H24.1048C23.4925 35.0712 22.9864 35.0407 22.384 35.0407C22.2782 35.2403 21.6995 37.9978 21.6439 38.2647C21.5316 38.8022 21.3982 39.3732 21.2852 39.9035C20.9503 41.4758 20.5218 43.2571 20.2198 44.7998C20.1636 45.0879 20.1045 45.3279 20.0462 45.6094C19.9915 45.8751 19.9282 46.1717 19.8641 46.4413C19.8275 46.5956 19.5259 47.9505 19.5259 48.1009L19.5257 48.1006Z" fill="#1F478E"/>
<path fill-rule="evenodd" clip-rule="evenodd" d="M26.9628 25.2681C26.9598 25.3977 26.9141 25.5239 26.8827 25.6491C26.8476 25.7878 26.8317 25.8853 26.7973 26.0244L25.838 29.7673C25.7715 30.0327 25.7185 30.2356 25.6589 30.5099C25.6094 30.7389 25.4925 31.0658 25.4877 31.2911H27.1162L28.9292 23.3322H26.3172L25.966 23.9951C25.8338 24.2161 25.7362 24.4407 25.6119 24.6549L23.5289 28.595C23.4873 28.6559 23.5205 28.6131 23.49 28.6482L23.3717 27.0457C23.3584 26.9289 23.3698 26.7989 23.3683 26.6803C23.3665 26.522 23.3438 26.5109 23.3362 26.3744C23.3299 26.2561 23.3393 26.1238 23.3378 26.004C23.3351 25.8025 23.3037 25.7461 23.306 25.3596C23.309 24.8599 23.2134 23.8527 23.2134 23.3319H20.6014C20.598 23.4834 20.5174 23.7854 20.4849 23.9222L20.0923 25.6498C19.9187 26.4382 19.7272 27.2145 19.5642 27.9798L18.9137 30.8632C18.8911 30.9717 18.8654 31.0435 18.8449 31.1399C18.8135 31.2876 18.8422 31.2631 19.0309 31.2624C19.5135 31.2601 19.9957 31.2601 20.4785 31.2601C20.7083 30.2736 20.8919 29.1922 21.1059 28.2307C21.2672 27.507 21.423 26.6336 21.5845 25.9739C21.6454 25.7252 21.7122 25.4814 21.7693 25.2369L21.8615 25.9743C21.8591 26.8432 21.9717 28.0871 21.9832 29.0178C21.985 29.1882 22.0142 29.2132 22.0164 29.3841L22.107 31.2904C22.6947 31.2904 23.2412 31.2599 23.8588 31.2599C23.8959 31.0996 24.1433 30.6605 24.2272 30.4914C24.2922 30.3603 24.3523 30.2741 24.4223 30.1331L26.3476 26.3736C26.4228 26.2217 26.8857 25.3236 26.9624 25.2672L26.9628 25.2681Z" fill="#1F478E"/>
<path fill-rule="evenodd" clip-rule="evenodd" d="M14.1788 29.9697C13.0658 29.9697 12.2124 29.1326 12.2124 28.0644C12.2124 26.9101 12.9531 25.4551 13.811 24.9614C14.276 24.6942 14.6357 24.6228 15.2544 24.6228C16.2035 24.6228 16.9753 25.4411 16.9753 26.313C16.9753 27.3168 16.7534 28.0931 16.163 28.8812C15.7605 29.4187 15.0995 29.9697 14.1788 29.9697ZM10.4299 28.0951C10.4299 29.4588 11.1201 30.615 12.3831 31.1202C12.9969 31.366 13.6012 31.3527 14.3015 31.3527C15.0582 31.3527 15.6417 31.1751 16.1456 30.9227C16.4449 30.7726 16.7556 30.5821 17.0107 30.3743C17.2867 30.1493 17.4972 29.9192 17.7224 29.6414C17.9499 29.3614 18.2225 28.8998 18.3672 28.5655C18.7271 27.7324 18.7882 27.1546 18.7882 26.221C18.7882 25.1113 18.1124 24.1982 17.2273 23.6642C15.8156 22.8127 13.8314 23.0866 12.4635 24.0142C11.2052 24.8672 10.4297 26.6217 10.4297 28.0953L10.4299 28.0951Z" fill="#1F488E"/>
<path fill-rule="evenodd" clip-rule="evenodd" d="M30.8651 28.003C30.8651 26.4599 31.9552 24.623 33.6003 24.623C34.2281 24.623 34.5974 24.6915 35.0833 25.1373C35.1407 25.1902 35.135 25.1952 35.1808 25.2548C35.5807 25.7727 35.5978 26.0421 35.5978 26.7127C35.5978 27.7539 34.7471 29.3817 33.6884 29.7816C33.0398 30.0265 32.2231 30.0144 31.6649 29.6924C31.1743 29.4094 30.8653 28.7786 30.8653 28.003H30.8651ZM29.0521 27.9724C29.0521 29.0529 29.2634 29.7045 30.0124 30.454C30.8439 31.2856 31.5609 31.3527 32.7397 31.3527C33.6332 31.3527 34.3399 31.1585 35.0739 30.737C35.3865 30.5571 35.4909 30.4486 35.747 30.2418C35.9976 30.0396 36.0112 30.0063 36.1907 29.7947C36.3637 29.5894 36.4075 29.5577 36.5811 29.294C36.7469 29.0427 36.8671 28.8135 37.0006 28.5149C37.7029 26.9441 37.5891 24.8023 36.0466 23.7743C35.5897 23.4697 35.1981 23.3186 34.5277 23.2342C32.8065 23.0173 31.1533 23.5415 30.1363 24.9082C29.5451 25.7023 29.0519 26.9038 29.0519 27.9723L29.0521 27.9724Z" fill="#1F488E"/>
<path fill-rule="evenodd" clip-rule="evenodd" d="M38.8245 25.514C38.8245 26.076 39.0675 26.5745 39.3541 26.8587C39.7324 27.2328 40.3327 27.5046 40.8349 27.7132C40.9581 27.7646 41.0466 27.8009 41.1592 27.85C41.6906 28.0832 41.9042 28.1629 42.3958 28.4881C43.0852 28.9438 42.7597 29.5716 42.2566 29.8064C41.6829 30.0743 40.427 30.0978 39.9391 29.6847C39.6247 29.4183 39.535 29.0017 39.5003 28.5868C39.3566 28.5868 39.2126 28.5856 39.0691 28.5859L37.7794 28.6484C37.8226 28.8328 37.8199 29.1016 37.8494 29.3163C37.9303 29.9033 38.2493 30.3912 38.6968 30.7427C38.986 30.9695 39.3177 31.1102 39.7116 31.2337C40.334 31.4291 41.813 31.4193 42.4577 31.2678C43.5898 31.0017 44.5709 30.1188 44.5709 28.833C44.5709 27.4349 43.3679 27.0056 42.1388 26.5018C41.7239 26.3318 40.8519 25.9274 40.6414 25.6023C40.4633 25.3275 40.6335 25.0131 40.8451 24.7999C41.1218 24.5206 41.7212 24.5614 42.1741 24.5614C42.4972 24.5614 42.794 24.6855 42.9658 24.8453C43.1129 24.9821 43.3294 25.2773 43.3838 25.5029C43.436 25.7198 43.3533 25.7671 43.674 25.7258L44.6605 25.6343C44.8034 25.6181 45.006 25.5754 45.1549 25.5754C44.9803 24.8271 44.848 24.2719 44.1843 23.8108C43.1956 23.1244 41.8837 23.0453 40.6984 23.3319C40.2842 23.4321 40.076 23.5351 39.7642 23.7495C39.5634 23.8871 39.2418 24.2408 39.1216 24.4588C38.9709 24.7328 38.8245 25.1048 38.8245 25.5142V25.514Z" fill="#1F488E"/>
<path fill-rule="evenodd" clip-rule="evenodd" d="M7.51074 29.0479C7.51074 29.3178 7.2284 29.6436 7.04057 29.7451C6.46953 30.054 5.07447 30.0981 4.59826 29.625C4.24073 29.2693 4.31559 29.0871 4.19188 28.556C3.65894 28.556 3.08823 28.6176 2.50174 28.6176C2.50174 29.6476 2.77417 30.2168 3.35244 30.6861C4.12155 31.3106 4.96671 31.3525 6.06617 31.3525C7.27675 31.3525 8.33391 30.9693 8.91855 30.0562C9.41138 29.2859 9.4295 28.0266 8.67852 27.4494C8.5825 27.3757 8.52778 27.3283 8.41397 27.2528C8.04251 27.0061 7.88187 26.9539 7.51074 26.7736C7.30394 26.6734 7.07834 26.5921 6.866 26.4966C6.44989 26.3095 5.26734 25.8541 5.26734 25.3295C5.26734 25.0309 5.57317 24.7172 5.74842 24.6428C6.07187 24.5057 7.23646 24.3919 7.70394 24.8597C7.78636 24.9418 7.90352 25.1076 7.96177 25.2165C8.03546 25.3537 8.11032 25.5173 8.12543 25.6985C8.55934 25.6985 9.45653 25.6353 9.84629 25.5447C9.82212 25.2548 9.63731 24.7022 9.51864 24.4894C8.78359 23.1741 6.75622 22.9255 5.28026 23.3446C4.86448 23.4629 4.53649 23.6424 4.22999 23.9229L3.87212 24.364C3.48471 24.9555 3.42193 25.6906 3.7009 26.3126C4.06834 27.1321 4.76629 27.3225 5.56461 27.7062C5.74909 27.7946 5.93692 27.8695 6.12391 27.9459C6.42521 28.0691 6.92979 28.3351 7.19131 28.5381C7.27524 28.6035 7.33147 28.6598 7.38938 28.7392C7.43403 28.8008 7.51107 28.9463 7.51107 29.048L7.51074 29.0479Z" fill="#1F488E"/>
</svg>
